<svg width="61" height="61" viewBox="0 0 61 61" fill="none" xmlns="http://www.w3.org/2000/svg">
<path fill-rule="evenodd" clip-rule="evenodd" d="M22.6699 3.625C23.7054 3.625 24.5449 4.46448 24.5449 5.5V8.65153C26.2179 8.625 28.0769 8.625 30.1422 8.625H30.1977C32.2629 8.625 34.1219 8.625 35.7949 8.65153V5.5C35.7949 4.46448 36.6344 3.625 37.6699 3.625C38.7054 3.625 39.5449 4.46448 39.5449 5.5V8.78395C43.3247 9.02093 46.2284 9.63337 48.6194 11.3704C49.8397 12.257 50.9129 13.3302 51.7994 14.5506C53.2642 16.5664 53.9199 18.9273 54.2357 21.8412C54.5449 24.6965 54.5449 28.2955 54.5449 32.8868V33.0288C54.5449 35.9283 54.5449 38.4215 54.4714 40.5642C54.3109 45.2477 53.8042 48.6903 51.7994 51.4495C50.9129 52.6698 49.8397 53.743 48.6194 54.6295C45.8602 56.6343 42.4177 57.141 37.7342 57.3015C35.5909 57.375 33.0974 57.375 30.1969 57.375H30.0567C25.4654 57.375 21.8664 57.375 19.0111 57.0658C16.0973 56.75 13.7363 56.0943 11.7205 54.6295C10.5001 53.743 9.42695 52.6698 8.5403 51.4495C7.07572 49.4335 6.41995 47.0727 6.10425 44.1587C5.7949 41.3035 5.7949 37.7045 5.79492 33.113V32.887C5.7949 28.2955 5.7949 24.6965 6.10425 21.8412C6.41995 18.9273 7.07572 16.5664 8.5403 14.5506C9.42695 13.3302 10.5001 12.257 11.7205 11.3704C14.1113 9.63337 17.0151 9.02093 20.7949 8.78395V5.5C20.7949 4.46448 21.6344 3.625 22.6699 3.625ZM20.7949 12.5431C17.3898 12.7773 15.4243 13.3146 13.9247 14.4042C13.0227 15.0595 12.2295 15.8528 11.5741 16.7548C10.6514 18.0248 10.1135 19.6503 9.83242 22.2451C9.5475 24.875 9.54492 28.271 9.54492 33C9.54492 37.729 9.5475 41.125 9.83242 43.755C10.1135 46.3498 10.6514 47.9753 11.5741 49.2453C12.2295 50.1473 13.0227 50.9405 13.9247 51.5957C15.1947 52.5185 16.8202 53.0563 19.415 53.3375C22.0449 53.6225 25.4409 53.625 30.1699 53.625C32.2907 53.625 34.1494 53.6248 35.7994 53.598C35.8104 52.4113 35.8474 51.5378 35.9719 50.7513C36.9462 44.6003 41.7702 39.7762 47.9212 38.802C48.7077 38.6775 49.5812 38.6405 50.7679 38.6295C50.7949 36.9795 50.7949 35.1207 50.7949 33C50.7949 28.271 50.7924 24.875 50.5074 22.2451C50.2262 19.6503 49.6884 18.0248 48.7657 16.7548C48.1104 15.8528 47.3172 15.0595 46.4152 14.4042C44.9154 13.3146 42.9502 12.7773 39.5449 12.5431V13C39.5449 14.0355 38.7054 14.875 37.6699 14.875C36.6344 14.875 35.7949 14.0355 35.7949 13V12.402C34.1459 12.3751 32.2889 12.375 30.1699 12.375C28.0509 12.375 26.1939 12.3751 24.5449 12.402V13C24.5449 14.0355 23.7054 14.875 22.6699 14.875C21.6344 14.875 20.7949 14.0355 20.7949 13V12.5431ZM50.6264 42.382C49.6139 42.3937 49.0204 42.4247 48.5079 42.5057C43.9614 43.226 40.3959 46.7915 39.6757 51.338C39.5947 51.8505 39.5637 52.444 39.5519 53.4565C42.9527 53.222 44.9164 52.6845 46.4152 51.5957C47.3172 50.9405 48.1104 50.1473 48.7657 49.2453C49.8547 47.7465 50.3919 45.7827 50.6264 42.382Z" fill="url(#paint0_linear_8589_467)"/>
<path d="M20.1699 23C20.1699 24.3807 19.0506 25.5 17.6699 25.5C16.2892 25.5 15.1699 24.3807 15.1699 23C15.1699 21.6193 16.2892 20.5 17.6699 20.5C19.0506 20.5 20.1699 21.6193 20.1699 23ZM20.1699 33C20.1699 34.3807 19.0506 35.5 17.6699 35.5C16.2892 35.5 15.1699 34.3807 15.1699 33C15.1699 31.6193 16.2892 30.5 17.6699 30.5C19.0506 30.5 20.1699 31.6193 20.1699 33ZM32.6699 23C32.6699 24.3807 31.5507 25.5 30.1699 25.5C28.7892 25.5 27.6699 24.3807 27.6699 23C27.6699 21.6193 28.7892 20.5 30.1699 20.5C31.5507 20.5 32.6699 21.6193 32.6699 23ZM32.6699 33C32.6699 34.3807 31.5507 35.5 30.1699 35.5C28.7892 35.5 27.6699 34.3807 27.6699 33C27.6699 31.6193 28.7892 30.5 30.1699 30.5C31.5507 30.5 32.6699 31.6193 32.6699 33ZM32.6699 43C32.6699 44.3807 31.5507 45.5 30.1699 45.5C28.7892 45.5 27.6699 44.3807 27.6699 43C27.6699 41.6193 28.7892 40.5 30.1699 40.5C31.5507 40.5 32.6699 41.6193 32.6699 43ZM45.1699 23C45.1699 24.3807 44.0507 25.5 42.6699 25.5C41.2892 25.5 40.1699 24.3807 40.1699 23C40.1699 21.6193 41.2892 20.5 42.6699 20.5C44.0507 20.5 45.1699 21.6193 45.1699 23ZM45.1699 33C45.1699 34.3807 44.0507 35.5 42.6699 35.5C41.2892 35.5 40.1699 34.3807 40.1699 33C40.1699 31.6193 41.2892 30.5 42.6699 30.5C44.0507 30.5 45.1699 31.6193 45.1699 33ZM20.1699 43C20.1699 44.3807 19.0506 45.5 17.6699 45.5C16.2892 45.5 15.1699 44.3807 15.1699 43C15.1699 41.6193 16.2892 40.5 17.6699 40.5C19.0506 40.5 20.1699 41.6193 20.1699 43Z" fill="url(#paint1_linear_8589_467)"/>
<defs>
<linearGradient id="paint0_linear_8589_467" x1="5.79492" y1="30.7605" x2="54.586" y2="30.7605" gradientUnits="userSpaceOnUse">
<stop stop-color="#4C1FFE"/>
<stop offset="0.480455" stop-color="#3084F7"/>
<stop offset="1" stop-color="#15E3F0"/>
</linearGradient>
<linearGradient id="paint1_linear_8589_467" x1="15.1699" y1="33.1212" x2="45.1952" y2="33.1212" gradientUnits="userSpaceOnUse">
<stop stop-color="#4C1FFE"/>
<stop offset="0.480455" stop-color="#3084F7"/>
<stop offset="1" stop-color="#15E3F0"/>
</linearGradient>
</defs>
</svg>
