<svg width="25" height="25" viewBox="0 0 25 25" fill="none" xmlns="http://www.w3.org/2000/svg">
<path d="M11.7067 1.66113V12.2592H1.10858C1.20288 9.5141 2.30303 7.03091 4.04755 5.15542C4.22567 4.96158 4.40903 4.77822 4.60286 4.6001C6.47836 2.85558 8.96155 1.75543 11.7067 1.66113Z" fill="#E04767"/>
<path d="M19.5963 20.7038C17.6613 22.5096 15.1378 23.5536 12.4925 23.6427C12.3615 23.6532 12.2305 23.6532 12.0996 23.6532C11.9686 23.6532 11.8376 23.6532 11.7067 23.6427C8.96153 23.5484 6.47834 22.4483 4.60284 20.7038L11.7067 13.5999L12.0996 13.207L19.5963 20.7038Z" fill="#93CDBE"/>
<path d="M23.0905 12.2592H12.4924V1.66113C15.2376 1.75543 17.7208 2.85558 19.5963 4.6001C19.7901 4.77822 19.9734 4.96158 20.1516 5.15542C21.8961 7.03091 22.9962 9.5141 23.0905 12.2592Z" fill="#7DA4C3"/>
<path d="M1.10858 13.0449H11.1514L4.04755 20.1487C2.2417 18.2137 1.19768 15.6902 1.10858 13.0449Z" fill="#D0822E"/>
<path d="M23.0908 13.0449C22.9965 15.7901 21.8964 18.2732 20.1519 20.1487L13.048 13.0449H23.0908Z" fill="#F1B974"/>
</svg>
