<svg width="53" height="53" viewBox="0 0 53 53" fill="none" xmlns="http://www.w3.org/2000/svg">
<path d="M26.1699 11.2354C17.8985 11.2354 11.1699 17.9639 11.1699 26.2354C11.1699 29.9968 12.5713 33.4296 14.8663 36.0654C14.9093 36.1324 14.9634 36.1916 15.0264 36.2404C17.7742 39.2975 21.7449 41.2354 26.1699 41.2354C30.5949 41.2354 34.5656 39.2982 37.3135 36.2404C37.3764 36.1916 37.4305 36.1324 37.4735 36.0654C39.7685 33.4296 41.1699 29.9968 41.1699 26.2354C41.1699 17.9639 34.4414 11.2354 26.1699 11.2354ZM26.1699 39.8068C22.2106 39.8068 18.6528 38.0925 16.1699 35.3782V34.0854C16.1699 30.5411 19.0542 27.6568 22.5985 27.6568H26.0392C26.0828 27.6582 26.1256 27.6639 26.1699 27.6639C26.2142 27.6639 26.2571 27.6582 26.3006 27.6568H29.7414C33.2856 27.6568 36.1699 30.5411 36.1699 34.0854V35.3782C33.6871 38.0925 30.1292 39.8068 26.1699 39.8068ZM26.3006 26.2282H26.0392C23.3428 26.1589 21.1699 23.9489 21.1699 21.2354C21.1699 18.4782 23.4128 16.2354 26.1699 16.2354C28.9271 16.2354 31.1699 18.4782 31.1699 21.2354C31.1699 23.9482 28.9971 26.1582 26.3006 26.2282ZM37.5721 33.5682C37.3135 29.6232 34.1364 26.4711 30.1806 26.2511C30.9345 25.6503 31.5434 24.8875 31.962 24.0191C32.3806 23.1508 32.5981 22.1993 32.5985 21.2354C32.5985 17.6911 29.7142 14.8068 26.1699 14.8068C22.6256 14.8068 19.7414 17.6911 19.7414 21.2354C19.7417 22.1993 19.9593 23.1508 20.3779 24.0191C20.7965 24.8875 21.4053 25.6503 22.1592 26.2511C18.2035 26.4711 15.0264 29.6225 14.7678 33.5682C13.3519 31.3846 12.5985 28.8378 12.5985 26.2354C12.5985 18.7518 18.6864 12.6639 26.1699 12.6639C33.6535 12.6639 39.7414 18.7518 39.7414 26.2354C39.7413 28.8378 38.9879 31.3846 37.5721 33.5682Z" fill="#3D56FA"/>
<path d="M50.5271 23.3818L45.8906 22.9182C45.3899 19.9331 44.2173 17.1008 42.4613 14.6354L45.4106 11.0304C45.5227 10.8933 45.5799 10.7194 45.571 10.5426C45.5622 10.3657 45.488 10.1984 45.3628 10.0732L42.3321 7.04249C42.2068 6.91729 42.0396 6.84307 41.8627 6.83423C41.6859 6.82539 41.512 6.88255 41.3749 6.99464L37.7699 9.94464C35.3045 8.18848 32.4722 7.0156 29.4871 6.51464L29.0235 1.87892C29.006 1.70261 28.9235 1.5391 28.7922 1.42017C28.6608 1.30124 28.49 1.23537 28.3128 1.23535H24.0271C23.85 1.23535 23.6792 1.30112 23.5479 1.41991C23.4166 1.53869 23.3341 1.70202 23.3164 1.87821L22.8528 6.51464C19.8677 7.01539 17.0354 8.18802 14.5699 9.94392L10.9649 6.99464C10.8279 6.8824 10.654 6.82513 10.4771 6.83398C10.3002 6.84282 10.1329 6.91715 10.0078 7.04249L6.97707 10.0732C6.85186 10.1984 6.77764 10.3657 6.7688 10.5426C6.75996 10.7194 6.81712 10.8933 6.92921 11.0304L9.87921 14.6354C8.12305 17.1007 6.95018 19.933 6.44921 22.9182L1.81349 23.3818C1.63718 23.3993 1.47367 23.4818 1.35474 23.6131C1.23581 23.7445 1.16994 23.9153 1.16992 24.0925V28.3782C1.16992 28.5553 1.23569 28.726 1.35448 28.8574C1.47326 28.9887 1.63659 29.0712 1.81278 29.0889L6.44921 29.5525C6.94996 32.5376 8.12259 35.3699 9.87849 37.8354L6.92921 41.4404C6.81712 41.5774 6.75996 41.7513 6.7688 41.9281C6.77764 42.105 6.85186 42.2723 6.97707 42.3975L10.0078 45.4282C10.133 45.5534 10.3003 45.6276 10.4771 45.6365C10.654 45.6453 10.8278 45.5882 10.9649 45.4761L14.5699 42.5261C17.0354 44.2821 19.8676 45.455 22.8528 45.9561L23.3164 50.5918C23.3339 50.7681 23.4163 50.9316 23.5477 51.0505C23.679 51.1695 23.8499 51.2353 24.0271 51.2354H28.3128C28.4899 51.2354 28.6606 51.1696 28.7919 51.0508C28.9233 50.932 29.0058 50.7687 29.0235 50.5925L29.4871 45.9561C32.4721 45.4552 35.3044 44.2826 37.7699 42.5268L41.3749 45.4761C41.5119 45.5885 41.6858 45.6458 41.8627 45.637C42.0397 45.6281 42.207 45.5537 42.3321 45.4282L45.3628 42.3975C45.488 42.2723 45.5622 42.105 45.571 41.9281C45.5799 41.7513 45.5227 41.5774 45.4106 41.4404L42.4606 37.8354C44.2168 35.37 45.3897 32.5377 45.8906 29.5525L50.5264 29.0889C50.7027 29.0714 50.8662 28.9889 50.9851 28.8576C51.104 28.7263 51.1699 28.5554 51.1699 28.3782V24.0925C51.1699 23.9154 51.1042 23.7447 50.9854 23.6133C50.8666 23.482 50.7033 23.3995 50.5271 23.3818ZM49.7414 27.7318L45.1971 28.1861C45.0377 28.2022 44.8884 28.2714 44.7732 28.3825C44.6579 28.4936 44.5833 28.6403 44.5614 28.7989C44.1262 31.9329 42.8962 34.9033 40.9885 37.4275C40.8915 37.5553 40.8404 37.7121 40.8434 37.8725C40.8464 38.0329 40.9033 38.1876 41.0049 38.3118L43.8956 41.8446L41.7792 43.9611L38.2464 41.0704C38.1224 40.9687 37.9678 40.9116 37.8075 40.9085C37.6472 40.9054 37.4906 40.9564 37.3628 41.0532C34.8387 42.9611 31.8682 44.1911 28.7342 44.6261C28.5753 44.6479 28.4284 44.7225 28.3171 44.838C28.2058 44.9534 28.1366 45.1029 28.1206 45.2625L27.6664 49.8068H24.6735L24.2192 45.2625C24.2031 45.1032 24.1339 44.9539 24.0228 44.8386C23.9116 44.7233 23.765 44.6487 23.6063 44.6268C20.4723 44.1916 17.5018 42.9614 14.9778 41.0532C14.8499 40.9563 14.6931 40.9053 14.5327 40.9085C14.3722 40.9116 14.2175 40.9686 14.0935 41.0704L10.5606 43.9611L8.44421 41.8446L11.3349 38.3118C11.4364 38.1877 11.4932 38.0331 11.4962 37.8728C11.4992 37.7126 11.4481 37.556 11.3514 37.4282C9.44387 34.9039 8.21414 31.9335 7.77921 28.7996C7.7574 28.6408 7.68276 28.4939 7.56732 28.3826C7.45187 28.2713 7.30234 28.2021 7.14278 28.1861L2.59849 27.7318V24.7389L7.14278 24.2846C7.3021 24.2685 7.4514 24.1994 7.56668 24.0882C7.68197 23.9771 7.75657 23.8304 7.77849 23.6718C8.21363 20.5378 9.44361 17.5674 11.3514 15.0432C11.4483 14.9154 11.4994 14.7586 11.4965 14.5982C11.4935 14.4378 11.4366 14.2831 11.3349 14.1589L8.44421 10.6261L10.5606 8.50964L14.0935 11.4004C14.3492 11.6089 14.7142 11.6161 14.9771 11.4168C17.5013 9.5093 20.4718 8.27957 23.6056 7.84464C23.7645 7.82283 23.9114 7.74819 24.0227 7.63275C24.134 7.5173 24.2032 7.36777 24.2192 7.20821L24.6735 2.66392H27.6664L28.1206 7.20821C28.1367 7.36753 28.2059 7.51683 28.3171 7.63211C28.4282 7.7474 28.5749 7.822 28.7335 7.84392C31.8674 8.27906 34.8379 9.50904 37.3621 11.4168C37.4899 11.5138 37.6466 11.5649 37.8071 11.5619C37.9675 11.5589 38.1222 11.502 38.2464 11.4004L41.7792 8.50964L43.8956 10.6261L41.0049 14.1589C40.9034 14.283 40.8466 14.4376 40.8437 14.5979C40.8407 14.7581 40.8917 14.9147 40.9885 15.0425C42.896 17.5668 44.1257 20.5372 44.5606 23.6711C44.5825 23.8299 44.6571 23.9768 44.7725 24.0881C44.888 24.1994 45.0375 24.2687 45.1971 24.2846L49.7414 24.7389V27.7318Z" fill="#3D56FA"/>
</svg>
