<svg width="53" height="53" viewBox="0 0 53 53" fill="none" xmlns="http://www.w3.org/2000/svg">
<path d="M47.23 34.2434L35.946 37.7794C36.05 37.5194 36.102 37.2594 36.102 36.9474C36.154 36.2194 35.894 35.4914 35.374 34.9194C34.802 34.3474 33.97 34.0354 33.19 34.0354H25.962L19.722 31.7474C18.162 31.1754 16.602 30.9154 14.938 30.9154H10.934V28.9394C10.934 27.7954 9.99796 26.8594 8.85396 26.8594H3.28996C2.14596 26.8594 1.20996 27.7954 1.20996 28.9394V46.9834C1.20996 48.1274 2.14596 49.0634 3.28996 49.0634H8.80196C9.94596 49.0634 10.882 48.1274 10.882 46.9834V45.2154H13.17C13.638 45.2154 14.158 45.3194 14.574 45.4754L27.938 50.1554C28.354 50.3114 28.77 50.3634 29.186 50.3634C29.81 50.3634 30.434 50.2074 31.006 49.8954L49.518 39.3394C50.142 39.0274 50.61 38.5594 50.922 37.8834C50.974 37.8314 50.974 37.7794 50.974 37.7794C51.234 37.1034 51.182 36.3234 50.87 35.6474C50.246 34.2434 48.582 33.6194 47.23 34.2434ZM8.80196 47.9714H3.28996C2.71796 47.9714 2.24996 47.5034 2.24996 46.9314V28.8874C2.24996 28.3154 2.71796 27.8474 3.28996 27.8474H8.80196C9.37396 27.8474 9.84196 28.3154 9.84196 28.8874V46.9314C9.89396 47.5034 9.37396 47.9714 8.80196 47.9714ZM49.986 37.4154V37.4674C49.83 37.8834 49.518 38.1954 49.05 38.4034L30.486 48.9594C29.81 49.3234 29.03 49.4274 28.302 49.1674L15.562 44.6434L14.938 44.4354C14.366 44.2274 13.794 44.1234 13.17 44.1234H10.882V31.9034H14.886C16.394 31.9034 17.902 32.1634 19.306 32.6834L25.65 35.0234C25.702 35.0234 25.754 35.0754 25.806 35.0754H33.138C33.658 35.0754 34.178 35.2834 34.542 35.6994C34.854 36.0634 35.01 36.4794 35.01 36.9474C34.958 37.3634 34.802 37.7794 34.49 38.0914C34.334 38.2474 34.178 38.3514 33.97 38.4554L33.554 38.6114H25.442C25.13 38.6114 24.922 38.8194 24.922 39.1314C24.922 39.4434 25.13 39.6514 25.442 39.6514H33.294C33.658 39.6514 34.074 39.5474 34.386 39.4434L47.49 35.3354H47.542C48.426 34.9194 49.466 35.2834 49.83 36.1674C50.142 36.4794 50.142 36.9474 49.986 37.4154Z" fill="#3D56FA"/>
<path d="M5.88982 42.8232C4.90182 42.8232 4.06982 43.6552 4.06982 44.6432C4.06982 45.6312 4.90182 46.4632 5.88982 46.4632C6.87782 46.4632 7.70982 45.6312 7.70982 44.6432C7.65782 43.6552 6.87782 42.8232 5.88982 42.8232ZM5.88982 45.3712C5.47382 45.3712 5.10982 45.0072 5.10982 44.5912C5.10982 44.1752 5.42182 43.8112 5.88982 43.8112C6.30582 43.8112 6.66982 44.1752 6.66982 44.5912C6.61782 45.0592 6.30582 45.3712 5.88982 45.3712ZM21.2818 13.3392C21.2298 13.4432 21.1778 13.4952 21.0738 13.4952L18.9418 13.9112C18.2658 14.0152 17.7458 14.5872 17.6418 15.2632C17.5378 15.9392 17.4858 16.6152 17.4858 17.2912C17.4858 17.9672 17.5378 18.6432 17.6418 19.3192C17.7458 19.9952 18.2658 20.5672 18.9418 20.6712L21.0738 21.0872C21.1778 21.0872 21.2298 21.1912 21.2818 21.2432C21.4378 21.7112 21.5938 22.1272 21.8018 22.5432C21.8538 22.6472 21.8538 22.6992 21.8018 22.8032L20.6058 24.5712C20.1898 25.1432 20.2418 25.9232 20.6578 26.4432C21.4898 27.5352 22.4258 28.4712 23.5178 29.3032C24.0898 29.7192 24.8178 29.7712 25.3898 29.3552L27.1578 28.1072C27.2618 28.0552 27.3138 28.0552 27.4178 28.1072C27.8338 28.3152 28.3018 28.4712 28.7178 28.6272C28.8218 28.6792 28.8738 28.7312 28.8738 28.8352L29.2898 30.9672C29.3938 31.6432 29.9658 32.1632 30.6418 32.2672C31.3178 32.3712 31.9938 32.4232 32.6698 32.4232C33.3458 32.4232 34.0218 32.3712 34.6978 32.2672C35.3738 32.1632 35.9458 31.6432 36.0498 30.9672L36.4658 28.8352C36.4658 28.7312 36.5698 28.6272 36.6218 28.6272C37.0378 28.4712 37.5058 28.3152 37.9218 28.1072C38.0258 28.0552 38.1298 28.0552 38.1818 28.1072L39.9498 29.3552C40.5218 29.7712 41.3018 29.7192 41.8218 29.3032C42.9138 28.4712 43.8498 27.5352 44.6818 26.4432C45.0978 25.8712 45.1498 25.1432 44.7338 24.5712L43.5378 22.8032C43.4858 22.6992 43.4858 22.5952 43.5378 22.5432C43.7458 22.1272 43.9018 21.6592 44.0578 21.2432C44.1098 21.1392 44.1618 21.0872 44.2658 21.0872L46.3978 20.6712C47.0738 20.5672 47.5938 19.9952 47.6978 19.3192C47.8018 18.6432 47.8538 17.9672 47.8538 17.2912C47.8538 16.6152 47.8018 15.9392 47.6978 15.2632C47.5938 14.5872 47.0738 14.0152 46.3978 13.9112L44.3698 13.4952C44.2658 13.4952 44.2138 13.3912 44.1618 13.3392C44.0058 12.9232 43.8498 12.4552 43.6418 12.0392C43.5898 11.9352 43.5898 11.8312 43.6418 11.7792L44.8898 9.95924C45.3058 9.38724 45.2538 8.60724 44.8378 8.08724C44.0058 6.99524 43.0698 6.05924 41.9778 5.22724C41.4058 4.81124 40.6778 4.75924 40.1058 5.17524L38.3378 6.37124C38.2338 6.42324 38.1298 6.42324 38.0778 6.37124C37.6618 6.16324 37.2458 6.00724 36.7778 5.85124C36.6738 5.79924 36.6218 5.74724 36.6218 5.64324L36.2058 3.51124C35.9978 2.83524 35.4258 2.31524 34.7498 2.21124C33.3978 2.05524 32.0458 2.05524 30.6938 2.21124C30.0178 2.31524 29.4458 2.83524 29.3418 3.56324L28.9258 5.69524C28.9258 5.79924 28.8218 5.85124 28.7698 5.90324C28.3018 6.05924 27.8858 6.26724 27.4698 6.42324C27.3658 6.47524 27.2618 6.47524 27.2098 6.42324L25.4418 5.22724C24.8698 4.81124 24.0898 4.86324 23.5698 5.27924C22.4778 6.11124 21.5418 7.04724 20.7098 8.13924C20.2938 8.71124 20.2418 9.43924 20.6578 10.0112L21.9058 11.7792C21.9578 11.8832 21.9578 11.9352 21.9058 12.0392C21.6458 12.4552 21.4378 12.8712 21.2818 13.3392ZM22.6858 11.2072L21.4378 9.38724C21.2818 9.17924 21.2818 8.91924 21.4378 8.71124C22.2178 7.72324 23.1018 6.78724 24.0898 6.05924C24.2978 5.90324 24.5578 5.90324 24.7658 6.05924L26.5338 7.30724C26.8978 7.56724 27.4178 7.61924 27.8338 7.41124C28.1978 7.25524 28.6138 7.04724 29.0298 6.94324C29.4458 6.78724 29.8098 6.42324 29.8618 5.95524L30.3298 3.71924C30.3818 3.45924 30.5898 3.30324 30.7978 3.25124C32.0458 3.09524 33.3458 3.09524 34.5938 3.25124C34.8538 3.30324 35.0618 3.45924 35.0618 3.71924L35.4778 5.85124C35.5818 6.31924 35.8938 6.68324 36.3098 6.83924C36.7258 6.99524 37.1418 7.15124 37.5058 7.30724C37.9218 7.51524 38.4418 7.46324 38.8058 7.20324L40.5738 6.00724C40.7818 5.85124 41.0418 5.85124 41.2498 6.00724C42.2378 6.78724 43.1738 7.67124 43.9018 8.65924C44.0578 8.86724 44.0578 9.12724 43.9018 9.33524L42.6538 11.1032C42.3938 11.4672 42.3418 11.9872 42.5498 12.4032C42.7578 12.7672 42.9138 13.1832 43.0178 13.5992C43.1738 14.0152 43.5378 14.3792 44.0058 14.4312L46.1378 14.8472C46.3978 14.8992 46.5538 15.1072 46.6058 15.3152C46.7098 15.9392 46.7098 16.5632 46.7098 17.1872C46.7098 17.8112 46.6578 18.4352 46.6058 19.0592C46.5538 19.3192 46.3978 19.5272 46.1378 19.5272L44.0058 19.9432C43.5378 20.0472 43.1738 20.3592 43.0178 20.8272C42.8618 21.2432 42.7058 21.6072 42.5498 22.0232C42.3418 22.4392 42.3938 22.9592 42.6538 23.3232L43.8498 25.0912C44.0058 25.2992 44.0058 25.5592 43.8498 25.7672C43.0698 26.7552 42.1858 27.6912 41.1978 28.4192C40.9898 28.5752 40.7298 28.5752 40.5218 28.4192L38.7538 27.1712C38.3898 26.9112 37.8698 26.8592 37.4538 27.0672C37.0898 27.2752 36.6738 27.4312 36.2578 27.5352C35.8418 27.6912 35.4778 28.0552 35.3738 28.5232L34.9578 30.6552C34.9058 30.9152 34.6978 31.0712 34.4898 31.1232C33.2418 31.2792 31.9418 31.2792 30.6938 31.1232C30.4338 31.0712 30.2778 30.9152 30.2258 30.6552L29.8098 28.5232C29.7058 28.0552 29.3938 27.6912 28.9778 27.5352C28.5618 27.3792 28.1978 27.2232 27.7818 27.0672C27.6258 26.9632 27.4178 26.9112 27.2098 26.9112C26.9498 26.9112 26.6898 26.9632 26.4818 27.1192L24.7138 28.3672C24.5058 28.5232 24.2458 28.5232 24.0378 28.3672C23.0498 27.5872 22.1138 26.7032 21.3858 25.7152C21.2298 25.5072 21.2298 25.2472 21.3858 25.0392L22.6338 23.2712C22.8938 22.9072 22.9458 22.3872 22.7378 21.9712C22.5298 21.6072 22.3738 21.1912 22.2698 20.7752C22.1138 20.3592 21.7498 19.9952 21.2818 19.9432L19.1498 19.5272C18.8898 19.4752 18.7338 19.2672 18.6818 19.0592C18.5778 18.4352 18.5778 17.8112 18.5778 17.1872C18.5778 16.5632 18.6298 15.9392 18.6818 15.3152C18.7338 15.0552 18.8898 14.8472 19.1498 14.8472L21.2818 14.4312C21.7498 14.3272 22.1138 14.0152 22.2698 13.5472C22.4258 13.1312 22.5818 12.7672 22.7378 12.3512C22.9458 12.0912 22.9458 11.5712 22.6858 11.2072Z" fill="#3D56FA"/>
<path d="M32.7219 24.5712C36.7259 24.5712 40.0019 21.2952 40.0019 17.2912C40.0019 13.2872 36.7259 10.0112 32.7219 10.0112C28.7179 10.0112 25.4419 13.2872 25.4419 17.2912C25.4419 21.2952 28.7179 24.5712 32.7219 24.5712ZM32.7219 11.1032C36.1539 11.1032 38.9619 13.9112 38.9619 17.3432C38.9619 20.7752 36.1539 23.5832 32.7219 23.5832C29.2899 23.5832 26.4819 20.7752 26.4819 17.3432C26.4819 13.8592 29.2899 11.1032 32.7219 11.1032Z" fill="#3D56FA"/>
</svg>
