<svg width="25" height="25" viewBox="0 0 25 25" fill="none" xmlns="http://www.w3.org/2000/svg">
<g clip-path="url(#clip0_8608_496)">
<path d="M3.63236 12.7443C2.73518 13.6415 2.73518 15.0955 3.63236 15.9927L11.0822 23.4426C11.5308 23.8912 12.1186 24.1152 12.7064 24.1152C13.2942 24.1152 13.8821 23.8912 14.3306 23.4426L21.7805 15.9927C22.6777 15.0955 22.6777 13.6415 21.7805 12.7443C20.8833 11.8471 19.4292 11.8471 18.5321 12.7443L15.0033 16.273V2.41211C15.0033 1.14367 13.9749 0.115234 12.7064 0.115234C11.438 0.115234 10.4096 1.14367 10.4096 2.41211V16.273L6.8808 12.7443C5.98361 11.8471 4.52955 11.8471 3.63236 12.7443Z" fill="#3D56FA"/>
</g>
<defs>
<clipPath id="clip0_8608_496">
<rect width="24" height="24" fill="white" transform="translate(0.706543 0.115234)"/>
</clipPath>
</defs>
</svg>
