<svg width="25" height="25" viewBox="0 0 25 25" fill="none" xmlns="http://www.w3.org/2000/svg">
<path d="M9.07596 12.3418L3.06396 16.2562V8.42741L9.07596 12.3418ZM16.732 12.3418L22.744 16.2562V8.42741L16.732 12.3418ZM15.8536 12.9154L13.1656 14.665C13.0864 14.7154 12.9952 14.7418 12.904 14.7418C12.8128 14.7418 12.7216 14.7154 12.6424 14.665L9.95436 12.9154L3.46236 17.1418L3.08556 17.3866C3.20316 18.0634 3.79356 18.5818 4.50396 18.5818H21.304C22.0144 18.5818 22.6048 18.0658 22.7224 17.3866L22.3432 17.1418L15.8536 12.9154ZM12.904 13.6882L22.3432 7.54181L22.7224 7.29701C22.6048 6.61781 22.0144 6.10181 21.304 6.10181H4.50396C3.79356 6.10181 3.20316 6.62021 3.08556 7.29701L3.46236 7.54181L12.904 13.6882Z" fill="white"/>
</svg>
