<svg width="25" height="25" viewBox="0 0 25 25" fill="none" xmlns="http://www.w3.org/2000/svg">
<g clip-path="url(#clip0_8608_2115)">
<path d="M19.5 8.33984H3.21426C2.98693 8.33984 2.76891 8.43467 2.60817 8.60345C2.44742 8.77223 2.35712 9.00115 2.35712 9.23984V11.9398C2.35712 12.058 2.37929 12.1751 2.42236 12.2843C2.46544 12.3935 2.52858 12.4927 2.60817 12.5762C2.68776 12.6598 2.78225 12.7261 2.88625 12.7713C2.99024 12.8166 3.1017 12.8398 3.21426 12.8398H19.5C19.7273 12.8398 19.9453 12.745 20.1061 12.5762C20.2668 12.4075 20.3571 12.1785 20.3571 11.9398V9.23984C20.3571 9.00115 20.2668 8.77223 20.1061 8.60345C19.9453 8.43467 19.7273 8.33984 19.5 8.33984Z" fill="#FFCC5C"/>
<path d="M19.6071 8.33984H18.1071C18.306 8.33984 18.4968 8.43467 18.6374 8.60345C18.7781 8.77223 18.8571 9.00115 18.8571 9.23984V11.9398C18.8571 12.058 18.8377 12.1751 18.8 12.2843C18.7623 12.3935 18.7071 12.4927 18.6374 12.5762C18.5678 12.6598 18.4851 12.7261 18.3941 12.7713C18.3031 12.8166 18.2056 12.8398 18.1071 12.8398H19.6071C19.806 12.8398 19.9968 12.745 20.1374 12.5762C20.2781 12.4075 20.3571 12.1785 20.3571 11.9398V9.23984C20.3571 9.00115 20.2781 8.77223 20.1374 8.60345C19.9968 8.43467 19.806 8.33984 19.6071 8.33984Z" fill="#F7B546"/>
<path d="M12.2395 12.8398H18.8571V22.4648C18.8571 22.6969 18.7642 22.9195 18.5987 23.0836C18.4332 23.2477 18.2088 23.3398 17.9748 23.3398H4.73947C4.50546 23.3398 4.28103 23.2477 4.11555 23.0836C3.95008 22.9195 3.85712 22.6969 3.85712 22.4648V12.8398H10.4748" fill="#FFCC5C"/>
<path d="M17.0924 12.8398H3.85712V14.5898H13.563C14.4991 14.5898 15.3968 14.9586 16.0587 15.615C16.7206 16.2713 17.0924 17.1616 17.0924 18.0898V23.3398H17.9748C18.2088 23.3398 18.4332 23.2477 18.5987 23.0836C18.7642 22.9195 18.8571 22.6969 18.8571 22.4648V12.8398H17.0924Z" fill="#F7B546"/>
<path d="M9.10712 3.83984C8.81164 3.83984 8.51906 3.89804 8.24608 4.01112C7.9731 4.12419 7.72506 4.28992 7.51613 4.49885C7.30719 4.70779 7.14146 4.95582 7.02839 5.22881C6.91531 5.50179 6.85712 5.79437 6.85712 6.08984C6.85712 6.38532 6.91531 6.6779 7.02839 6.95088C7.14146 7.22386 7.30719 7.4719 7.51613 7.68083C7.72506 7.88977 7.9731 8.0555 8.24608 8.16857C8.51906 8.28165 8.81164 8.33984 9.10712 8.33984H11.3571V6.08984C11.3571 5.49311 11.1201 4.92081 10.6981 4.49885C10.2761 4.0769 9.70385 3.83984 9.10712 3.83984ZM10.4571 7.43984H9.10712C8.84011 7.43984 8.5791 7.36067 8.3571 7.21233C8.13509 7.06399 7.96206 6.85315 7.85988 6.60647C7.7577 6.35979 7.73097 6.08835 7.78306 5.82647C7.83515 5.5646 7.96372 5.32405 8.15252 5.13525C8.34132 4.94645 8.58187 4.81787 8.84374 4.76578C9.10562 4.71369 9.37706 4.74043 9.62374 4.84261C9.87042 4.94478 10.0813 5.11782 10.2296 5.33982C10.3779 5.56183 10.4571 5.82284 10.4571 6.08984V7.43984ZM13.6071 3.83984C13.0104 3.83984 12.4381 4.0769 12.0161 4.49885C11.5942 4.92081 11.3571 5.49311 11.3571 6.08984V8.33984H13.6071C13.9026 8.33984 14.1952 8.28165 14.4682 8.16857C14.7411 8.0555 14.9892 7.88977 15.1981 7.68083C15.407 7.4719 15.5728 7.22386 15.6858 6.95088C15.7989 6.6779 15.8571 6.38532 15.8571 6.08984C15.8571 5.79437 15.7989 5.50179 15.6858 5.22881C15.5728 4.95582 15.407 4.70779 15.1981 4.49885C14.9892 4.28992 14.7411 4.12419 14.4682 4.01112C14.1952 3.89804 13.9026 3.83984 13.6071 3.83984ZM13.6071 7.43984H12.2571V6.08984C12.2571 5.82284 12.3363 5.56183 12.4846 5.33982C12.633 5.11782 12.8438 4.94478 13.0905 4.84261C13.3372 4.74043 13.6086 4.71369 13.8705 4.76578C14.1324 4.81787 14.3729 4.94645 14.5617 5.13525C14.7505 5.32405 14.8791 5.5646 14.9312 5.82647C14.9833 6.08835 14.9565 6.35979 14.8544 6.60647C14.7522 6.85315 14.5791 7.06399 14.3571 7.21233C14.1351 7.36067 13.8741 7.43984 13.6071 7.43984Z" fill="#F04C4D"/>
<path d="M13.4404 7.58979H13.8571C14.1886 7.58979 14.5066 7.43176 14.741 7.15047C14.9754 6.86917 15.1071 6.48765 15.1071 6.08984C15.1071 5.69203 14.9754 5.31052 14.741 5.02922C14.5066 4.74793 14.1886 4.5899 13.8571 4.5899C13.7854 4.5899 13.7171 4.6009 13.6488 4.6149C13.9594 4.67476 14.2397 4.87323 14.4335 5.17055C14.6273 5.46787 14.7204 5.84209 14.694 6.21825C14.6677 6.59441 14.5239 6.94474 14.2914 7.19907C14.059 7.45341 13.755 7.59296 13.4404 7.58979ZM9.27378 4.5899H8.85712C8.5256 4.5899 8.20765 4.74793 7.97323 5.02922C7.73881 5.31052 7.60712 5.69203 7.60712 6.08984C7.60712 6.48765 7.73881 6.86917 7.97323 7.15047C8.20765 7.43176 8.5256 7.58979 8.85712 7.58979C8.92878 7.58979 8.99712 7.57879 9.06545 7.56479C8.75485 7.50492 8.47456 7.30645 8.28073 7.00913C8.0869 6.71181 7.99384 6.3376 8.02018 5.96144C8.04653 5.58528 8.19033 5.23495 8.42279 4.98061C8.65525 4.72628 8.95921 4.58672 9.27378 4.5899Z" fill="#E13340"/>
<path d="M10.6071 8.33984H12.1071V23.3398H10.6071V8.33984Z" fill="#F04C4D"/>
<path d="M17.9571 2.93984L19.3571 2.58984L17.9571 2.23984L17.6071 0.839844L17.2571 2.23984L15.8571 2.58984L17.2571 2.93984L17.6071 4.33984L17.9571 2.93984ZM19.5321 5.38984L20.2321 5.21484L19.5321 5.03984L19.3571 4.33984L19.1821 5.03984L18.4821 5.21484L19.1821 5.38984L19.3571 6.08984L19.5321 5.38984ZM20.4071 1.88984L21.1071 1.71484L20.4071 1.53984L20.2321 0.839844L20.0571 1.53984L19.3571 1.71484L20.0571 1.88984L20.2321 2.58984L20.4071 1.88984Z" fill="#FFCC5C"/>
</g>
<defs>
<clipPath id="clip0_8608_2115">
<rect width="24" height="24" fill="white" transform="translate(0.107117 0.0898438)"/>
</clipPath>
</defs>
</svg>
