<svg width="20" height="20" viewBox="0 0 20 20" fill="none" xmlns="http://www.w3.org/2000/svg">
<path d="M19.1052 13.9084C19.0714 13.8804 15.2502 11.1617 14.2184 11.328C13.7206 11.4159 13.4364 11.7556 12.866 12.435C12.7083 12.6241 12.547 12.8103 12.3823 12.9933C12.0218 12.8758 11.6702 12.7327 11.3301 12.565C9.57466 11.7104 8.15632 10.292 7.3017 8.5366C7.134 8.19655 6.99088 7.84492 6.87343 7.48441C7.06079 7.31298 7.32336 7.09183 7.43553 6.99751C8.11171 6.43031 8.45076 6.14543 8.5387 5.64706C8.71906 4.61526 5.9863 0.79526 5.95826 0.760846C5.83381 0.584349 5.67172 0.437684 5.4837 0.331441C5.29568 0.225197 5.08642 0.162025 4.87102 0.146484C3.76338 0.146484 0.601074 4.24818 0.601074 4.93965C0.601074 4.9798 0.659069 9.0611 5.69186 14.1806C10.8056 19.2076 14.8869 19.2656 14.927 19.2656C15.6179 19.2656 19.7202 16.1033 19.7202 14.9957C19.7045 14.7802 19.6412 14.571 19.5349 14.383C19.4285 14.195 19.2818 14.0329 19.1052 13.9084ZM14.8563 17.9872C14.3031 17.94 10.8744 17.4882 6.59174 13.2813C2.3645 8.97762 1.92412 5.54318 1.88014 5.01103C2.71551 3.69987 3.72437 2.50771 4.8793 1.46698C4.90479 1.49247 4.93857 1.53071 4.98191 1.58042C5.86765 2.78953 6.63066 4.08392 7.25963 5.4444C7.0551 5.65017 6.83891 5.84401 6.61213 6.02498C6.26046 6.29294 5.93753 6.59665 5.64853 6.93123C5.59963 6.99984 5.56482 7.07747 5.54611 7.15962C5.5274 7.24178 5.52517 7.32683 5.53955 7.40985C5.67442 7.99408 5.88099 8.55941 6.15455 9.09297C7.13465 11.1056 8.76097 12.7317 10.7737 13.7115C11.3072 13.9855 11.8725 14.1923 12.4569 14.3272C12.5399 14.3418 12.625 14.3398 12.7072 14.3211C12.7894 14.3023 12.867 14.2674 12.9355 14.2182C13.2712 13.928 13.576 13.6038 13.8449 13.2507C14.045 13.0124 14.312 12.6944 14.4134 12.6045C15.7773 13.2329 17.0746 13.9968 18.2856 14.8848C18.3385 14.9294 18.3761 14.9638 18.401 14.9861C17.3602 16.1414 16.1678 17.1505 14.8563 17.9859V17.9872ZM14.6218 9.06875H15.8964C15.8949 7.71703 15.3572 6.4211 14.4014 5.46529C13.4456 4.50947 12.1497 3.97183 10.7979 3.97031V5.24492C11.8118 5.24593 12.7838 5.64913 13.5007 6.36601C14.2176 7.0829 14.6208 8.05492 14.6218 9.06875Z" fill="white"/>
<path d="M17.8082 9.06816H19.0828C19.0803 6.87163 18.2066 4.76579 16.6534 3.21261C15.1002 1.65942 12.9944 0.785733 10.7979 0.783203V2.05781C12.6564 2.06001 14.4383 2.7993 15.7525 4.11352C17.0667 5.42774 17.806 7.20958 17.8082 9.06816Z" fill="white"/>
</svg>
