<svg width="25" height="25" viewBox="0 0 25 25" fill="none" xmlns="http://www.w3.org/2000/svg">
<g clip-path="url(#clip0_8608_515)">
<path d="M14.2611 2.00388C8.49267 1.84835 3.76688 6.39192 3.76688 12.0019H1.7383C1.22832 12.0019 0.979003 12.6018 1.34165 12.9462L4.50351 16.0567C4.73017 16.2789 5.08149 16.2789 5.30814 16.0567L8.47 12.9462C8.82132 12.6018 8.572 12.0019 8.06202 12.0019H6.03344C6.03344 7.66945 9.63728 4.17012 14.0798 4.22567C18.2956 4.28121 21.8427 7.75832 21.8994 11.8908C21.9561 16.2345 18.3862 19.7782 13.9664 19.7782C12.1418 19.7782 10.4532 19.1672 9.11597 18.1341C8.66266 17.7897 8.02802 17.823 7.62004 18.223C7.14406 18.6895 7.17806 19.4783 7.7107 19.8782C9.43329 21.2113 11.5979 22 13.9664 22C19.6895 22 24.3246 17.3676 24.166 11.7131C24.0186 6.503 19.5762 2.14829 14.2611 2.00388ZM13.6831 7.55836C13.2185 7.55836 12.8331 7.93606 12.8331 8.39153V12.4796C12.8331 12.8684 13.0485 13.235 13.3884 13.435L16.9243 15.4902C17.3323 15.7234 17.8536 15.5901 18.0916 15.2013C18.3296 14.8014 18.1936 14.2904 17.7969 14.0571L14.5331 12.1575V8.38042C14.5331 7.93606 14.1477 7.55836 13.6831 7.55836Z" fill="#3D56FA"/>
</g>
<defs>
<clipPath id="clip0_8608_515">
<rect width="24" height="24" fill="white" transform="translate(0.706543 0.115234)"/>
</clipPath>
</defs>
</svg>
