<svg width="25" height="25" viewBox="0 0 25 25" fill="none" xmlns="http://www.w3.org/2000/svg">
<path d="M19.8214 13.8397V20.2683C19.8214 20.5004 19.7366 20.7013 19.5669 20.871C19.3973 21.0406 19.1964 21.1254 18.9642 21.1254H13.8214V15.9826H10.3928V21.1254H5.24996C5.01782 21.1254 4.81693 21.0406 4.64728 20.871C4.47764 20.7013 4.39282 20.5004 4.39282 20.2683V13.8397C4.39282 13.8308 4.39505 13.8174 4.39952 13.7995C4.40398 13.7817 4.40621 13.7683 4.40621 13.7593L12.1071 7.41113L19.808 13.7593C19.8169 13.7772 19.8214 13.804 19.8214 13.8397ZM22.808 12.9156L21.9776 13.9067C21.9062 13.987 21.8125 14.0361 21.6964 14.054H21.6562C21.5401 14.054 21.4464 14.0227 21.375 13.9602L12.1071 6.23256L2.83925 13.9602C2.73211 14.0317 2.62496 14.0629 2.51782 14.054C2.40175 14.0361 2.308 13.987 2.23657 13.9067L1.40621 12.9156C1.33478 12.8263 1.30353 12.7214 1.31246 12.6009C1.32139 12.4803 1.3705 12.3843 1.45978 12.3129L11.0892 4.2906C11.375 4.05845 11.7142 3.94238 12.1071 3.94238C12.5 3.94238 12.8392 4.05845 13.125 4.2906L16.3928 7.02274V4.41113C16.3928 4.28613 16.433 4.18345 16.5134 4.1031C16.5937 4.02274 16.6964 3.98256 16.8214 3.98256H19.3928C19.5178 3.98256 19.6205 4.02274 19.7009 4.1031C19.7812 4.18345 19.8214 4.28613 19.8214 4.41113V9.87542L22.7544 12.3129C22.8437 12.3843 22.8928 12.4803 22.9017 12.6009C22.9107 12.7214 22.8794 12.8263 22.808 12.9156Z" fill="#2D8DF6"/>
</svg>
