<svg width="85" height="85" viewBox="0 0 85 85" fill="none" xmlns="http://www.w3.org/2000/svg">
<path d="M69.8214 47.054V69.8218C69.8214 70.644 69.521 71.3555 68.9202 71.9563C68.3193 72.5571 67.6079 72.8576 66.7857 72.8576H48.5714V54.6433H36.4285V72.8576H18.2143C17.3921 72.8576 16.6806 72.5571 16.0798 71.9563C15.4789 71.3555 15.1785 70.644 15.1785 69.8218V47.054C15.1785 47.0224 15.1864 46.9749 15.2023 46.9117C15.2181 46.8484 15.226 46.801 15.226 46.7694L42.5 24.2861L69.774 46.7694C69.8056 46.8326 69.8214 46.9275 69.8214 47.054ZM80.399 43.7811L77.4581 47.2912C77.2051 47.5758 76.8731 47.7497 76.462 47.8129H76.3197C75.9086 47.8129 75.5766 47.7022 75.3236 47.4809L42.5 20.112L9.67631 47.4809C9.29684 47.7339 8.91738 47.8445 8.53792 47.8129C8.12683 47.7497 7.7948 47.5758 7.54182 47.2912L4.60097 43.7811C4.348 43.4649 4.23732 43.0933 4.26894 42.6664C4.30056 42.2395 4.47449 41.8996 4.79071 41.6466L38.8951 13.2342C39.907 12.4121 41.1086 12.001 42.5 12.001C43.8913 12.001 45.093 12.4121 46.1049 13.2342L57.6785 22.9106V13.6611C57.6785 13.2184 57.8208 12.8548 58.1054 12.5702C58.39 12.2856 58.7537 12.1433 59.1964 12.1433H68.3035C68.7462 12.1433 69.1099 12.2856 69.3945 12.5702C69.6791 12.8548 69.8214 13.2184 69.8214 13.6611V33.0138L80.2092 41.6466C80.5255 41.8996 80.6994 42.2395 80.731 42.6664C80.7626 43.0933 80.6519 43.4649 80.399 43.7811Z" fill="#2D8DF6"/>
</svg>
