<svg width="50" height="41" viewBox="0 0 50 41" fill="none" xmlns="http://www.w3.org/2000/svg">
<path fill-rule="evenodd" clip-rule="evenodd" d="M11.144 9.23943C11.907 4.33564 17.7582 0.521484 24.8632 0.521484C31.9682 0.521484 37.8195 4.33564 38.5824 9.23943H40.1196C45.3356 9.23943 49.5641 13.4679 49.5641 18.6839C49.5641 23.8999 45.3356 28.1283 40.1196 28.1283H9.6068C4.39077 28.1283 0.162354 23.8999 0.162354 18.6839C0.162354 13.4679 4.39078 9.23943 9.6068 9.23943H11.144Z" fill="#629DDD"/>
<path opacity="0.5" d="M24.8703 16.1075L16.0054 30.2913C15.6066 30.9294 16.3218 31.6784 16.9777 31.3095L20.956 29.0718C21.379 28.8338 21.9119 29.0696 22.0203 29.5427L23.4091 35.6031C23.5577 36.2514 24.427 36.3758 24.7515 35.7952L32.6629 21.6358C33.035 20.9698 32.2604 20.2538 31.6257 20.6769L28.2346 22.9377C27.7917 23.233 27.1921 22.9674 27.1131 22.441L26.2048 16.3848C26.1047 15.7174 25.228 15.5352 24.8703 16.1075Z" fill="#124D8D"/>
</svg>
