<svg width="25" height="25" viewBox="0 0 25 25" fill="none" xmlns="http://www.w3.org/2000/svg">
<path d="M9.46228 10.2716C9.58462 10.389 9.68229 10.5296 9.74958 10.6852C9.81686 10.8408 9.85241 11.0083 9.85412 11.1778C9.85429 11.3512 9.81971 11.5229 9.75241 11.6827C9.68511 11.8426 9.58646 11.9873 9.46228 12.1084C9.21563 12.338 8.89308 12.4688 8.55616 12.4757C8.21192 12.4757 7.88178 12.339 7.63837 12.0956C7.39495 11.8521 7.2582 11.522 7.2582 11.1778C7.26517 10.8409 7.39593 10.5183 7.62555 10.2716C7.87843 10.0364 8.21077 9.90519 8.55616 9.9043C8.89308 9.91126 9.21563 10.042 9.46228 10.2716ZM11.0541 15.9043V16.1737H6.03371V15.9043C6.03043 15.6204 6.08393 15.3387 6.19107 15.0757C6.29821 14.8128 6.45683 14.5739 6.65761 14.3731C6.85839 14.1723 7.09727 14.0137 7.36022 13.9066C7.62318 13.7994 7.90489 13.7459 8.18881 13.7492H8.89902C9.18294 13.7459 9.46466 13.7994 9.72761 13.9066C9.99056 14.0137 10.2294 14.1723 10.4302 14.3731C10.631 14.5739 10.7896 14.8128 10.8968 15.0757C11.0039 15.3387 11.0574 15.6204 11.0541 15.9043Z" fill="#D4E1F4"/>
<path d="M11.5194 16.1733H11.0541V15.904C11.0574 15.62 11.0039 15.3383 10.8967 15.0754C10.7896 14.8124 10.631 14.5735 10.4302 14.3728C10.2294 14.172 9.99054 14.0134 9.72758 13.9062C9.46463 13.7991 9.18292 13.7456 8.89899 13.7489H8.18879C7.90487 13.7456 7.62315 13.7991 7.3602 13.9062C7.09725 14.0134 6.85836 14.172 6.65759 14.3728C6.45681 14.5735 6.29819 14.8124 6.19105 15.0754C6.08391 15.3383 6.0304 15.62 6.03369 15.904V16.1733H5.49491C5.23511 16.1733 4.98594 16.0701 4.80224 15.8864C4.61853 15.7027 4.51532 15.4536 4.51532 15.1938V9.41416C4.51532 9.15436 4.61853 8.9052 4.80224 8.72149C4.98594 8.53778 5.23511 8.43457 5.49491 8.43457H11.5194C11.7792 8.43457 12.0284 8.53778 12.2121 8.72149C12.3958 8.9052 12.499 9.15436 12.499 9.41416V15.1938C12.499 15.4536 12.3958 15.7027 12.2121 15.8864C12.0284 16.0701 11.7792 16.1733 11.5194 16.1733ZM9.85409 11.1774C9.85238 11.0079 9.81684 10.8404 9.74955 10.6849C9.68227 10.5293 9.58459 10.3887 9.46226 10.2713C9.21561 10.0417 8.89305 9.91092 8.55614 9.90396C8.21074 9.90485 7.8784 10.036 7.62552 10.2713C7.39591 10.518 7.26514 10.8405 7.25818 11.1774C7.25818 11.5217 7.39493 11.8518 7.63834 12.0952C7.88176 12.3386 8.2119 12.4754 8.55614 12.4754C8.89305 12.4684 9.21561 12.3377 9.46226 12.108C9.58643 11.987 9.68508 11.8422 9.75238 11.6824C9.81968 11.5226 9.85427 11.3509 9.85409 11.1774Z" fill="#00ACEA"/>
<path d="M21.6337 7.6022V17.0063C21.6337 17.396 21.4789 17.7697 21.2033 18.0453C20.9278 18.3209 20.554 18.4757 20.1643 18.4757H4.05002C3.66031 18.4757 3.28656 18.3209 3.011 18.0453C2.73544 17.7697 2.58063 17.396 2.58063 17.0063V7.6022C2.58063 7.21249 2.73544 6.83875 3.011 6.56319C3.28656 6.28762 3.66031 6.13281 4.05002 6.13281H20.1643C20.554 6.13281 20.9278 6.28762 21.2033 6.56319C21.4789 6.83875 21.6337 7.21249 21.6337 7.6022ZM12.499 15.194V9.41445C12.499 9.15464 12.3958 8.90548 12.2121 8.72177C12.0284 8.53806 11.7792 8.43485 11.5194 8.43485H5.49491C5.23511 8.43485 4.98595 8.53806 4.80224 8.72177C4.61853 8.90548 4.51532 9.15464 4.51532 9.41445V15.194C4.51532 15.4538 4.61853 15.703 4.80224 15.8867C4.98595 16.0704 5.23511 16.1736 5.49491 16.1736H11.5194C11.7792 16.1736 12.0284 16.0704 12.2121 15.8867C12.3958 15.703 12.499 15.4538 12.499 15.194Z" fill="#00EFD1"/>
<path d="M20.1643 18.965H4.05C3.5304 18.965 3.03207 18.7586 2.66465 18.3912C2.29723 18.0238 2.09082 17.5255 2.09082 17.0058V7.60176C2.09082 7.08215 2.29723 6.58383 2.66465 6.21641C3.03207 5.84899 3.5304 5.64258 4.05 5.64258H20.1643C20.6839 5.64258 21.1822 5.84899 21.5496 6.21641C21.9171 6.58383 22.1235 7.08215 22.1235 7.60176V17.0058C22.1235 17.5255 21.9171 18.0238 21.5496 18.3912C21.1822 18.7586 20.6839 18.965 20.1643 18.965ZM4.05 6.62217C3.92044 6.6188 3.79156 6.64184 3.67118 6.68988C3.55081 6.73791 3.44148 6.80995 3.34983 6.90159C3.25819 6.99323 3.18616 7.10257 3.13812 7.22294C3.09008 7.34331 3.06705 7.4722 3.07041 7.60176V17.0058C3.06705 17.1354 3.09008 17.2643 3.13812 17.3847C3.18616 17.505 3.25819 17.6144 3.34983 17.706C3.44148 17.7977 3.55081 17.8697 3.67118 17.9177C3.79156 17.9658 3.92044 17.9888 4.05 17.9854H20.1643C20.2938 17.9888 20.4227 17.9658 20.5431 17.9177C20.6635 17.8697 20.7728 17.7977 20.8645 17.706C20.9561 17.6144 21.0281 17.505 21.0762 17.3847C21.1242 17.2643 21.1472 17.1354 21.1439 17.0058V7.60176C21.1472 7.4722 21.1242 7.34331 21.0762 7.22294C21.0281 7.10257 20.9561 6.99323 20.8645 6.90159C20.7728 6.80995 20.6635 6.73791 20.5431 6.68988C20.4227 6.64184 20.2938 6.6188 20.1643 6.62217H4.05Z" fill="#224099"/>
<path d="M19.699 13.9933H14.1888C14.0589 13.9933 13.9343 13.9417 13.8424 13.8498C13.7506 13.758 13.699 13.6334 13.699 13.5035C13.699 13.3736 13.7506 13.249 13.8424 13.1571C13.9343 13.0653 14.0589 13.0137 14.1888 13.0137H19.699C19.8289 13.0137 19.9535 13.0653 20.0453 13.1571C20.1372 13.249 20.1888 13.3736 20.1888 13.5035C20.1888 13.6334 20.1372 13.758 20.0453 13.8498C19.9535 13.9417 19.8289 13.9933 19.699 13.9933Z" fill="#224099"/>
<path d="M17.25 11.5938H14.1888C14.0589 11.5938 13.9343 11.5422 13.8424 11.4504C13.7506 11.3585 13.699 11.234 13.699 11.1041C13.699 10.9742 13.7506 10.8496 13.8424 10.7577C13.9343 10.6659 14.0589 10.6143 14.1888 10.6143H17.25C17.3799 10.6143 17.5045 10.6659 17.5963 10.7577C17.6882 10.8496 17.7398 10.9742 17.7398 11.1041C17.7398 11.234 17.6882 11.3585 17.5963 11.4504C17.5045 11.5422 17.3799 11.5938 17.25 11.5938Z" fill="#224099"/>
<path d="M13.0867 9.3649C13.0867 8.97519 12.9319 8.60144 12.6564 8.32588C12.3808 8.05032 12.0071 7.89551 11.6174 7.89551H5.4949C5.10519 7.89551 4.73145 8.05032 4.45589 8.32588C4.18032 8.60144 4.02551 8.97519 4.02551 9.3649V15.2424C4.02551 15.6322 4.18032 16.0059 4.45589 16.2815C4.73145 16.557 5.10519 16.7118 5.4949 16.7118H11.6174C12.0071 16.7118 12.3808 16.557 12.6564 16.2815C12.9319 16.0059 13.0867 15.6322 13.0867 15.2424V9.3649ZM6.54796 15.7322C6.64592 14.7527 7.33164 14.2629 8.18878 14.2629H8.89898C9.75613 14.2629 10.4418 14.7527 10.5398 15.7322H6.54796ZM12.1071 15.1935C12.0954 15.3236 12.0367 15.445 11.9421 15.5351C11.8475 15.6252 11.7234 15.6779 11.5929 15.6833C11.5202 15.0209 11.2046 14.4089 10.707 13.9657C10.2095 13.5224 9.56533 13.2793 8.89898 13.2833H8.18878C7.5166 13.2695 6.8653 13.5171 6.37198 13.9739C5.87866 14.4306 5.5818 15.061 5.54388 15.7322H5.4949C5.36066 15.72 5.23589 15.6579 5.14521 15.5581C5.05454 15.4584 5.00455 15.3283 5.0051 15.1935V9.41388C5.00455 9.27908 5.05454 9.14897 5.14521 9.04922C5.23589 8.94948 5.36066 8.88735 5.4949 8.8751H11.5194C11.6641 8.88457 11.8012 8.94314 11.908 9.0411C12.0149 9.13907 12.0852 9.27057 12.1071 9.41388V15.1935Z" fill="#224099"/>
<path d="M8.55613 12.9646C8.08198 12.9646 7.62726 12.7762 7.29199 12.4409C6.95672 12.1057 6.76837 11.651 6.76837 11.1768C6.77421 10.8276 6.88221 10.4878 7.07902 10.1992C7.27584 9.91073 7.55286 9.68618 7.87586 9.55333C8.19886 9.42048 8.5537 9.38515 8.89656 9.45171C9.23941 9.51826 9.55527 9.68379 9.80511 9.92784C9.97628 10.0903 10.1126 10.2859 10.2058 10.5027C10.2989 10.7195 10.3469 10.9531 10.3469 11.1891C10.3469 11.4251 10.2989 11.6586 10.2058 11.8754C10.1126 12.0922 9.97628 12.2878 9.80511 12.4503C9.64175 12.615 9.4471 12.7453 9.2326 12.8337C9.0181 12.922 8.78809 12.9665 8.55613 12.9646ZM8.55613 10.3931C8.45232 10.3907 8.34907 10.409 8.25237 10.4468C8.15568 10.4847 8.06746 10.5413 7.99286 10.6136C7.91382 10.6842 7.851 10.7711 7.80873 10.8684C7.76645 10.9656 7.74573 11.0708 7.74796 11.1768C7.74633 11.3364 7.79197 11.4928 7.87913 11.6265C7.96629 11.7602 8.09107 11.865 8.23773 11.9279C8.3844 11.9908 8.54639 12.0088 8.70329 11.9797C8.86019 11.9507 9.00497 11.8758 9.11939 11.7646C9.26944 11.6047 9.35645 11.3959 9.36429 11.1768C9.35742 10.9647 9.26982 10.7632 9.11939 10.6136C8.96724 10.4699 8.76533 10.3909 8.55613 10.3931Z" fill="#224099"/>
</svg>
