<svg width="25" height="25" viewBox="0 0 25 25" fill="none" xmlns="http://www.w3.org/2000/svg">
<g clip-path="url(#clip0_8608_2126)">
<path d="M12.1071 13.3602C10.7527 12.6102 9.61646 11.6138 8.79769 10.453C7.86549 9.13141 7.37274 7.62387 7.37274 6.0934V2.43284C8.51705 2.29064 9.62995 1.96012 10.6664 1.45465C11.1855 1.19887 11.6798 0.895294 12.1426 0.547852C12.7708 0.984562 13.4441 1.35238 14.151 1.64496C15.0142 2.00318 15.9176 2.25554 16.8415 2.39655V6.0934C16.8415 7.62387 16.3487 9.13137 15.4165 10.453C14.5978 11.6138 13.4615 12.6102 12.1071 13.3602Z" fill="#F8BE32"/>
<path d="M12.1071 11.7144C11.2378 11.1326 10.4997 10.4261 9.94684 9.64221C9.18282 8.55902 8.77899 7.33184 8.77899 6.09316V3.60771C9.64744 3.40814 10.4898 3.10863 11.2893 2.71516C11.5905 2.56632 11.8835 2.40443 12.1681 2.22949C12.6329 2.4986 13.1149 2.73697 13.6108 2.94307C14.2031 3.18919 14.8129 3.39073 15.4352 3.54602V6.09321C15.4352 7.33184 15.0314 8.55907 14.2674 9.64221C13.7146 10.4261 12.9765 11.1326 12.1071 11.7144Z" fill="#FDDD5A"/>
<path d="M13.6109 2.94307C13.1149 2.73698 12.633 2.49861 12.1681 2.22949C11.9458 2.36615 11.7178 2.49499 11.4842 2.61602C11.7199 2.73218 11.96 2.8412 12.2046 2.94307C12.7969 3.18919 13.4067 3.39073 14.029 3.54602V6.09321C14.029 7.33184 13.6252 8.55907 12.8611 9.64221C12.4473 10.2221 11.9571 10.7436 11.404 11.1926C11.6272 11.3757 11.8616 11.5496 12.1071 11.7144C12.9765 11.1326 13.7146 10.4261 14.2674 9.64221C15.0314 8.55907 15.4352 7.33184 15.4352 6.09316V3.54602C14.813 3.39073 14.2031 3.18918 13.6109 2.94307Z" fill="#FED030"/>
<path d="M18.7697 13.0451L18.1685 10.0179C18.1466 9.90728 18.1471 9.79339 18.17 9.68297C18.1929 9.57256 18.2378 9.46788 18.302 9.37516C18.3662 9.28244 18.4483 9.20357 18.5436 9.14323C18.6389 9.0829 18.7453 9.04234 18.8566 9.02395C19.0566 8.9909 19.2619 9.0312 19.4346 9.13745C19.6072 9.2437 19.7358 9.40874 19.7964 9.6022L20.9377 13.2399C21.122 13.8277 21.1083 14.4597 20.8987 15.039L20.0634 17.3467C19.8852 17.8387 19.5734 18.2714 19.1628 18.5959L18.6421 19.0074C18.4698 19.1436 18.3318 19.3183 18.2391 19.5175C18.1465 19.7166 18.1018 19.9347 18.1086 20.1542L18.1516 21.5437L14.3375 21.6048L18.7697 13.0451Z" fill="#FDD8AE"/>
<path d="M20.9377 13.2399L19.7965 9.6022C19.7358 9.40874 19.6073 9.2437 19.4346 9.13745C19.2619 9.0312 19.0567 8.9909 18.8566 9.02395C18.7825 9.03645 18.7104 9.05884 18.6423 9.09051C18.7491 9.13949 18.8444 9.21034 18.9221 9.29849C18.9998 9.38663 19.0582 9.4901 19.0934 9.6022L20.2345 13.2399C20.4189 13.8277 20.4052 14.4597 20.1956 15.039L19.3603 17.3467C19.1822 17.8388 18.8703 18.2714 18.4597 18.5959L17.939 19.0075C17.7667 19.1437 17.6287 19.3183 17.536 19.5175C17.4434 19.7166 17.3987 19.9347 17.4054 20.1542L17.4485 21.5437L14.3434 21.5934L14.3375 21.6048L18.1516 21.5437L18.1086 20.1542C18.1018 19.9347 18.1465 19.7166 18.2392 19.5175C18.3318 19.3183 18.4698 19.1437 18.6421 19.0075L19.1628 18.5959C19.5734 18.2714 19.8853 17.8388 20.0634 17.3467L20.8987 15.039C21.1084 14.4598 21.122 13.8277 20.9376 13.2399H20.9377Z" fill="#FBBF7D"/>
<path d="M14.1673 21.5557L13.9049 19.3333C13.8689 19.0282 13.9 18.7189 13.996 18.4271C14.0919 18.1353 14.2505 17.8679 14.4605 17.6438L18.7697 13.0449C19.0493 13.1944 19.258 13.4488 19.35 13.7521C19.442 14.0555 19.4097 14.383 19.2603 14.6625L18.2643 16.5259" fill="#FDD8AE"/>
<path d="M17.7641 16.5259C17.9152 16.5259 18.0635 16.4848 18.1932 16.4071C18.3228 16.3294 18.4289 16.218 18.5001 16.0847L19.2603 14.6625C19.4097 14.3829 19.442 14.0555 19.35 13.7521C19.258 13.4488 19.0493 13.1944 18.7698 13.0449L18.5629 13.2656C18.7397 13.4475 18.854 13.6808 18.8895 13.9319C18.9249 14.183 18.8796 14.4388 18.7601 14.6625L17.7641 16.5259Z" fill="#FBBF7D"/>
<path d="M19.5256 23.4333L13.2551 24.1963L13.0755 22.3471L12.9963 21.6866C12.9753 21.5098 13.0254 21.3319 13.1356 21.1921C13.2457 21.0522 13.4069 20.9618 13.5837 20.9408L18.4793 20.3535C18.6561 20.3322 18.8341 20.3819 18.9742 20.4918C19.1143 20.6016 19.205 20.7626 19.2265 20.9394L19.3001 21.5549L19.5256 23.4333Z" fill="#2370B5"/>
<path d="M17.073 20.523C17.2498 20.5017 17.4278 20.5514 17.5679 20.6613C17.708 20.7711 17.7988 20.9321 17.8202 21.1089L17.8938 21.7244L18.1195 23.6044L19.5256 23.4333L19.3001 21.5549L19.2265 20.9394C19.205 20.7626 19.1143 20.6016 18.9742 20.4918C18.8341 20.3819 18.6561 20.3322 18.4793 20.3535L13.5837 20.9408C13.5785 20.9414 13.5735 20.9427 13.5683 20.9434L17.073 20.523Z" fill="#1067AE"/>
<path d="M19.3001 21.5549V21.5553L13.0755 22.3471L12.9963 21.6866C12.9753 21.5098 13.0254 21.3319 13.1356 21.1921C13.2457 21.0522 13.4069 20.9618 13.5837 20.9408L18.4793 20.3535C18.6561 20.3322 18.8341 20.3819 18.9742 20.4918C19.1143 20.6016 19.205 20.7626 19.2265 20.9394L19.3001 21.5549Z" fill="#1067AE"/>
<path d="M19.2265 20.9394C19.205 20.7626 19.1143 20.6016 18.9742 20.4918C18.8341 20.3819 18.6561 20.3322 18.4793 20.3535L13.5837 20.9408C13.5586 20.9439 13.5336 20.9484 13.509 20.9543L17.0731 20.5267C17.2498 20.5054 17.4278 20.5552 17.5679 20.665C17.708 20.7749 17.7988 20.9359 17.8203 21.1126L17.8938 21.7281V21.7286L19.3001 21.5553V21.5549L19.2265 20.9394Z" fill="#0A56A4"/>
<path d="M5.45267 13.0451L6.05384 10.0179C6.0758 9.90728 6.07531 9.79339 6.05238 9.68297C6.02946 9.57256 5.98457 9.46788 5.92039 9.37516C5.8562 9.28244 5.77403 9.20357 5.67876 9.14323C5.58349 9.0829 5.47707 9.04234 5.36581 9.02395C5.16576 8.9909 4.9605 9.0312 4.78781 9.13745C4.61512 9.2437 4.4866 9.40874 4.42592 9.6022L3.2847 13.2399C3.10031 13.8277 3.11402 14.4597 3.3237 15.039L4.15901 17.3467C4.33712 17.8387 4.64898 18.2714 5.05952 18.5959L5.58021 19.0074C5.75253 19.1436 5.89055 19.3183 5.98321 19.5175C6.07587 19.7166 6.12059 19.9347 6.11379 20.1542L6.07076 21.5437L9.88484 21.6048L5.45267 13.0451Z" fill="#FDD8AE"/>
<path d="M5.58022 19.0075L5.05958 18.5959C4.64902 18.2714 4.33714 17.8388 4.15901 17.3467L3.3237 15.039C3.11401 14.4598 3.10031 13.8277 3.2847 13.2399L4.42592 9.60219C4.48661 9.40874 4.61511 9.24371 4.7878 9.13746C4.96048 9.03121 5.16572 8.9909 5.36576 9.02394C5.43987 9.03644 5.51197 9.05883 5.58012 9.09051C5.47332 9.13949 5.37798 9.21034 5.30028 9.29848C5.22258 9.38662 5.16424 9.49009 5.12905 9.60219L3.98783 13.2399C3.80345 13.8277 3.81715 14.4597 4.02683 15.039L4.86214 17.3466C5.04025 17.8387 5.35213 18.2714 5.7627 18.5959L6.28334 19.0075C6.45566 19.1437 6.59367 19.3183 6.68633 19.5175C6.77899 19.7166 6.82372 19.9347 6.81692 20.1542L6.77389 21.5437L9.87898 21.5934L9.88484 21.6048L6.07076 21.5437L6.1138 20.1542" fill="#FBBF7D"/>
<path d="M10.0552 21.5557L10.3175 19.3333C10.3535 19.0282 10.3224 18.7189 10.2264 18.4271C10.1305 18.1353 9.97191 17.8679 9.76185 17.6438L5.45264 13.0449C5.17309 13.1944 4.96436 13.4488 4.87237 13.7521C4.78037 14.0555 4.81265 14.383 4.96209 14.6625L5.95809 16.5259" fill="#FDD8AE"/>
<path d="M6.45833 16.5259C6.3072 16.5259 6.1589 16.4848 6.02927 16.4071C5.89964 16.3294 5.79354 16.218 5.7223 16.0847L4.96213 14.6625C4.8127 14.3829 4.78044 14.0555 4.87243 13.7521C4.96442 13.4488 5.17314 13.1944 5.45268 13.0449L5.65949 13.2656C5.48277 13.4475 5.36843 13.6808 5.333 13.9319C5.29757 14.183 5.34288 14.4388 5.46238 14.6625L6.45833 16.5259Z" fill="#FBBF7D"/>
<path d="M4.69653 23.4351L10.9673 24.1963L11.1468 22.3471L11.226 21.6866C11.247 21.5098 11.1969 21.3319 11.0868 21.1921C10.9766 21.0522 10.8155 20.9618 10.6387 20.9408L5.74306 20.3535C5.5663 20.3322 5.3883 20.3819 5.2482 20.4918C5.10809 20.6016 5.01734 20.7626 4.99588 20.9394L4.92228 21.5549L4.69653 23.4351Z" fill="#2370B5"/>
<path d="M10.6387 20.9408L5.74308 20.3534C5.58106 20.334 5.4175 20.3743 5.28314 20.4669L9.23245 20.9408C9.40923 20.9618 9.57041 21.0522 9.68055 21.192C9.7907 21.3319 9.84078 21.5098 9.8198 21.6865L9.74058 22.347L9.59536 24.0297L10.9673 24.1962L11.1468 22.347L11.226 21.6865C11.247 21.5098 11.1969 21.3319 11.0868 21.192C10.9767 21.0522 10.8155 20.9618 10.6387 20.9408Z" fill="#1067AE"/>
<path d="M4.9223 21.5549V21.5553L11.1468 22.3471L11.2261 21.6866C11.247 21.5098 11.197 21.3319 11.0868 21.1921C10.9767 21.0522 10.8155 20.9618 10.6387 20.9408L5.74308 20.3535C5.56631 20.3322 5.38832 20.3819 5.24821 20.4918C5.10811 20.6016 5.01735 20.7626 4.9959 20.9394L4.9223 21.5549Z" fill="#1067AE"/>
<path d="M10.6387 20.9408L9.32465 20.7832C9.48674 20.8196 9.62957 20.9148 9.72554 21.0504C9.82151 21.186 9.86379 21.3524 9.84421 21.5174L9.76579 22.1714L11.1469 22.3471L11.2261 21.6866C11.2471 21.5098 11.197 21.332 11.0868 21.1921C10.9767 21.0523 10.8155 20.9619 10.6387 20.9408Z" fill="#0A56A4"/>
<path d="M10.6725 20.5919L10.5169 20.5732L10.6586 19.3741C10.7008 19.0182 10.6646 18.6573 10.5526 18.3169C10.4406 17.9764 10.2554 17.6646 10.01 17.4033L5.8243 12.9361L6.39055 10.0859C6.4217 9.92894 6.42097 9.76736 6.38839 9.61074C6.35581 9.45411 6.29205 9.30565 6.2009 9.17417C6.10975 9.0427 5.99308 8.93091 5.85784 8.84547C5.7226 8.76002 5.57154 8.70265 5.41367 8.67679C5.34956 8.66635 5.28471 8.66107 5.21975 8.66099C4.96571 8.6603 4.71815 8.74108 4.51342 8.89148C4.30868 9.04188 4.15757 9.25396 4.08228 9.49659L2.94144 13.1343C2.7348 13.7957 2.75015 14.5066 2.98512 15.1585L3.82044 17.4662C4.02087 18.0197 4.3717 18.5064 4.8335 18.8715L5.35419 19.283C5.46437 19.3706 5.55599 19.4793 5.62372 19.6027C5.69144 19.7261 5.73391 19.8618 5.74864 20.0018C5.48351 19.9774 5.21932 20.0573 5.01212 20.2245C4.80493 20.3917 4.67104 20.6331 4.63887 20.8974L4.56528 21.5109L4.56519 21.5112V21.5115L4.37994 23.0554C4.36931 23.1477 4.39568 23.2405 4.45328 23.3134C4.51088 23.3864 4.59502 23.4336 4.68731 23.4446C4.7796 23.4557 4.87251 23.4298 4.94573 23.3725C5.01896 23.3153 5.06653 23.2314 5.07805 23.1391L5.22083 21.949L10.7481 22.6519L10.61 23.8029C10.6039 23.849 10.607 23.8959 10.6192 23.9408C10.6313 23.9858 10.6522 24.0278 10.6808 24.0646C10.7093 24.1014 10.7448 24.1321 10.7853 24.155C10.8258 24.178 10.8705 24.1926 10.9167 24.1982C10.9629 24.2037 11.0097 24.2 11.0545 24.1873C11.0993 24.1746 11.1411 24.1532 11.1775 24.1242C11.2139 24.0952 11.2442 24.0593 11.2666 24.0185C11.289 23.9777 11.3031 23.9329 11.3081 23.8867L11.4874 22.3926L11.4875 22.3915L11.4876 22.3901L11.567 21.7287C11.583 21.5953 11.5725 21.4601 11.5361 21.3308C11.4998 21.2015 11.4383 21.0806 11.3553 20.975C11.2722 20.8695 11.1692 20.7813 11.052 20.7156C10.9349 20.6498 10.806 20.6078 10.6726 20.5919H10.6725ZM5.26962 18.32C4.9104 18.0359 4.63747 17.6574 4.48151 17.2268L3.6462 14.919C3.46347 14.4121 3.45153 13.8593 3.61222 13.3449L4.75316 9.70715C4.78402 9.60759 4.84599 9.52054 4.92997 9.4588C5.01395 9.39706 5.11551 9.36388 5.21975 9.36412C5.24676 9.36417 5.27372 9.36636 5.30037 9.37068C5.36514 9.38134 5.42709 9.40491 5.48256 9.44001C5.53802 9.4751 5.58586 9.52099 5.62323 9.57495C5.66059 9.62891 5.68672 9.68983 5.70006 9.7541C5.7134 9.81836 5.71368 9.88465 5.70087 9.94902L5.12919 12.8266C4.8163 13.0422 4.59384 13.3655 4.50432 13.7347C4.4148 14.104 4.46451 14.4933 4.64394 14.8282L5.64003 16.6915C5.684 16.7737 5.75883 16.8351 5.84806 16.8622C5.89225 16.8756 5.93864 16.8801 5.98459 16.8756C6.03054 16.8711 6.07514 16.8575 6.11586 16.8358C6.15658 16.814 6.19261 16.7844 6.22189 16.7487C6.25118 16.713 6.27315 16.6719 6.28655 16.6277C6.29994 16.5835 6.30451 16.5371 6.29998 16.4912C6.29545 16.4453 6.28191 16.4006 6.26014 16.3599L5.26395 14.4965C5.19814 14.3747 5.16377 14.2383 5.16397 14.0999C5.1637 13.8808 5.24866 13.6702 5.40087 13.5126L9.49695 17.884C9.67219 18.0707 9.80447 18.2934 9.88452 18.5366C9.96456 18.7798 9.99043 19.0375 9.96031 19.2918L9.8188 20.4894L6.45711 20.0861C6.45303 19.8251 6.3911 19.5681 6.27578 19.3339C6.16046 19.0996 5.99463 18.8939 5.79022 18.7314L5.26962 18.32ZM10.8689 21.6449L10.8319 21.9537L5.30459 21.2508L5.33694 20.9811C5.34738 20.897 5.39073 20.8205 5.45749 20.7683C5.52426 20.7161 5.60899 20.6924 5.69314 20.7026L6.05136 20.7456H6.05159L10.5888 21.29C10.673 21.2999 10.7498 21.3429 10.8024 21.4094C10.8549 21.476 10.8789 21.5607 10.8689 21.6449ZM15.7038 10.6557C16.6781 9.27435 17.193 7.69677 17.193 6.09332V2.39662C17.193 2.31264 17.163 2.23143 17.1083 2.16769C17.0536 2.10395 16.9779 2.0619 16.8949 2.04913C15.9991 1.91215 15.1231 1.66747 14.286 1.32041C13.6025 1.03734 12.9514 0.681693 12.3438 0.259586C12.2831 0.217158 12.2104 0.195023 12.1363 0.196345C12.0623 0.197667 11.9905 0.222377 11.9313 0.266945C11.4857 0.601148 11.0101 0.893246 10.5106 1.13948C9.50945 1.62869 8.43391 1.94794 7.328 2.08415C7.2432 2.09503 7.16526 2.13645 7.10879 2.20064C7.05231 2.26483 7.02115 2.3474 7.02116 2.4329V6.09337C7.02116 7.69682 7.53608 9.2744 8.51037 10.6557C9.3545 11.8524 10.5394 12.894 11.9368 13.6678C11.9889 13.6967 12.0475 13.7118 12.1071 13.7118C12.1667 13.7118 12.2253 13.6967 12.2774 13.6678C13.6748 12.894 14.8597 11.8524 15.7038 10.6557V10.6557ZM12.1071 12.9563C10.8761 12.2448 9.83398 11.3124 9.08492 10.2504C8.19476 8.98841 7.72428 7.55085 7.72428 6.09341V2.7381C8.80019 2.57517 9.84486 2.24866 10.8221 1.7699C11.285 1.54148 11.729 1.27668 12.15 0.977992C12.739 1.3671 13.3639 1.69913 14.016 1.96959C14.812 2.29987 15.6415 2.54288 16.4899 2.69437V6.09341C16.4899 7.5509 16.0194 8.98841 15.1293 10.2504C14.3802 11.3124 13.3381 12.2448 12.1071 12.9563ZM15.7868 3.54627C15.7868 3.46787 15.7606 3.39171 15.7123 3.32992C15.664 3.26812 15.5965 3.22422 15.5204 3.20521C14.9152 3.05406 14.322 2.85802 13.7458 2.61871C13.2641 2.41844 12.796 2.18692 12.3445 1.92562C12.2896 1.8938 12.2271 1.87742 12.1636 1.87823C12.1002 1.87904 12.0381 1.897 11.984 1.93021C11.7079 2.09979 11.4241 2.25662 11.1335 2.40023C10.3583 2.78144 9.54158 3.07178 8.69966 3.26544C8.62226 3.28337 8.55321 3.32698 8.50377 3.38917C8.45433 3.45136 8.42741 3.52847 8.42741 3.60791V6.09341C8.42741 7.40498 8.85345 8.70229 9.65952 9.8451C10.2397 10.6677 10.9974 11.3949 11.9115 12.0067C11.9694 12.0455 12.0375 12.0662 12.1071 12.0662C12.1767 12.0662 12.2448 12.0455 12.3027 12.0067C13.2168 11.3949 13.9745 10.6677 14.5547 9.8451C15.3607 8.70229 15.7868 7.40498 15.7868 6.09341V3.54627ZM15.0837 6.09341C15.0837 7.2591 14.7021 8.41626 13.9801 9.43982C13.4639 10.1565 12.8307 10.7812 12.1071 11.2877C11.3835 10.7812 10.7503 10.1565 10.2341 9.43982C9.51214 8.41626 9.13053 7.2591 9.13053 6.09341V3.8841C9.92959 3.68078 10.7053 3.39472 11.445 3.03055C11.6925 2.90829 11.9353 2.77701 12.1731 2.63699C12.595 2.87184 13.0299 3.08249 13.4757 3.26793C13.9994 3.48545 14.5365 3.66913 15.0837 3.81782V6.09341ZM21.2728 13.1345L20.1319 9.49649C20.0405 9.20524 19.841 8.96009 19.5743 8.81152C19.3077 8.66294 18.9942 8.62223 18.6985 8.69778C18.4027 8.77332 18.1472 8.95937 17.9844 9.21762C17.8217 9.47588 17.7641 9.78669 17.8236 10.0861L18.3899 12.9361L14.2041 17.4033C13.9588 17.6646 13.7736 17.9765 13.6616 18.317C13.5495 18.6575 13.5134 19.0183 13.5556 19.3743L13.6973 20.5732L13.5417 20.5919C13.4083 20.6078 13.2793 20.6498 13.1622 20.7156C13.0451 20.7813 12.942 20.8695 12.859 20.975C12.7759 21.0806 12.7145 21.2015 12.6781 21.3308C12.6418 21.4601 12.6313 21.5953 12.6472 21.7287L12.7265 22.3902L12.7266 22.3916L12.7268 22.3926L12.9061 23.8867C12.9176 23.9789 12.9652 24.0628 13.0384 24.12C13.1116 24.1773 13.2045 24.2032 13.2968 24.1922C13.3891 24.1811 13.4732 24.1339 13.5308 24.061C13.5884 23.988 13.6148 23.8952 13.6042 23.8029L13.4661 22.6519L18.9934 21.949L19.1361 23.1391C19.1477 23.2314 19.1952 23.3153 19.2685 23.3725C19.3417 23.4298 19.4346 23.4557 19.5269 23.4446C19.6192 23.4336 19.7033 23.3864 19.7609 23.3134C19.8185 23.2405 19.8449 23.1477 19.8342 23.0554L19.649 21.5115V21.5112L19.649 21.5109L19.5754 20.8974C19.543 20.6331 19.4091 20.3919 19.2019 20.2247C18.9948 20.0575 18.7306 19.9776 18.4655 20.0018C18.4803 19.8618 18.5227 19.7262 18.5904 19.6028C18.6581 19.4794 18.7497 19.3707 18.8599 19.2831L19.3808 18.8714C19.8426 18.5063 20.1934 18.0196 20.3938 17.4661L21.229 15.1586C21.464 14.5067 21.4794 13.7959 21.2728 13.1345ZM18.521 20.7026C18.6052 20.6925 18.6899 20.7161 18.7567 20.7683C18.8234 20.8205 18.8668 20.8971 18.8772 20.9811L18.9096 21.2508L13.3823 21.9537L13.3453 21.6449C13.3354 21.5607 13.3593 21.476 13.4119 21.4094C13.4644 21.3429 13.5412 21.2999 13.6254 21.29L18.1626 20.7456H18.1628L18.521 20.7026ZM20.5679 14.9191L19.7326 17.2267C19.5767 17.6573 19.3039 18.0358 18.9447 18.3199L18.4239 18.7315C18.2195 18.8939 18.0537 19.0997 17.9384 19.3339C17.8231 19.5682 17.7612 19.8251 17.7571 20.0861L14.3954 20.4894L14.2538 19.2919C14.2237 19.0376 14.2496 18.7799 14.3296 18.5367C14.4097 18.2934 14.542 18.0707 14.7172 17.884L18.8133 13.5125C18.9656 13.6701 19.0505 13.8808 19.0502 14.0999C19.0504 14.2384 19.016 14.3748 18.9501 14.4966L17.954 16.3599C17.9101 16.4422 17.9006 16.5385 17.9276 16.6277C17.9547 16.717 18.0161 16.7918 18.0983 16.8358C18.1806 16.8797 18.2769 16.8892 18.3661 16.8622C18.4554 16.8351 18.5302 16.7737 18.5742 16.6915L19.5702 14.8284C19.7496 14.4935 19.7994 14.1041 19.7099 13.7348C19.6204 13.3656 19.3979 13.0422 19.085 12.8266L18.5134 9.94926C18.5005 9.88497 18.5008 9.81875 18.514 9.75456C18.5273 9.69036 18.5534 9.62948 18.5906 9.57553C18.6279 9.52159 18.6756 9.47568 18.7309 9.44053C18.7862 9.40538 18.8481 9.38171 18.9127 9.37091C18.9397 9.36647 18.9671 9.3642 18.9944 9.36412C19.0987 9.36386 19.2002 9.39702 19.2842 9.45874C19.3682 9.52045 19.4302 9.60747 19.461 9.70701L20.6021 13.3452C20.7627 13.8595 20.7507 14.4123 20.5679 14.9191Z" fill="#3C3B41"/>
</g>
<defs>
<clipPath id="clip0_8608_2126">
<rect width="24" height="24" fill="white" transform="translate(0.107117 0.196289)"/>
</clipPath>
</defs>
</svg>
