<svg width="53" height="53" viewBox="0 0 53 53" fill="none" xmlns="http://www.w3.org/2000/svg">
<path d="M26.1699 1.23535C12.3738 1.23535 1.16992 12.4392 1.16992 26.2354C1.16992 40.0315 12.3738 51.2354 26.1699 51.2354C39.9661 51.2354 51.1699 40.0315 51.1699 26.2354C51.1699 12.4392 39.9661 1.23535 26.1699 1.23535ZM26.1699 3.15843C38.9257 3.15843 49.2468 13.4796 49.2468 26.2354C49.2468 38.9911 38.9257 49.3123 26.1699 49.3123C13.4142 49.3123 3.093 38.9911 3.093 26.2354C3.093 13.4796 13.4142 3.15843 26.1699 3.15843ZM12.7084 12.7738C11.6603 12.7738 10.7853 13.6488 10.7853 14.6969V33.9277C10.7853 34.9757 11.6603 35.8507 12.7084 35.8507H22.3238V39.6969H18.4776V41.62H33.8622V39.6969H30.0315V35.8507H39.6315C40.6795 35.8507 41.5545 34.9757 41.5545 33.9277V14.6969C41.5545 13.6488 40.6795 12.7738 39.6315 12.7738H12.7084ZM12.7084 14.6969H39.6315V33.9277H12.7084V14.6969ZM16.5545 16.62C15.5065 16.62 14.6315 17.495 14.6315 18.543V30.0815C14.6315 31.1296 15.5065 32.0046 16.5545 32.0046H35.7853C36.8334 32.0046 37.7084 31.1296 37.7084 30.0815V18.543C37.7084 17.495 36.8334 16.62 35.7853 16.62H16.5545ZM16.5545 18.543H35.7853V30.0815H16.5545V18.543ZM24.2468 35.8507H28.1084V39.6969H24.2468V35.8507Z" fill="#3D56FA"/>
</svg>
