<svg width="61" height="61" viewBox="0 0 61 61" fill="none" xmlns="http://www.w3.org/2000/svg">
<path d="M30.1699 3.3125C15.1453 3.3125 2.98242 15.4753 2.98242 30.5C2.98242 45.5247 15.1453 57.6875 30.1699 57.6875C45.1946 57.6875 57.3574 45.5247 57.3574 30.5C57.3574 15.4753 45.1946 3.3125 30.1699 3.3125ZM30.1699 54.8257C16.7193 54.8257 5.84426 43.9507 5.84426 30.5C5.84426 17.0493 16.7193 6.17434 30.1699 6.17434C43.6206 6.17434 54.4956 17.0493 54.4956 30.5C54.4956 43.9507 43.6206 54.8257 30.1699 54.8257ZM44.1214 30.5C44.1214 31.287 43.4775 31.9309 42.6905 31.9309H26.6642C25.8772 31.9309 25.2332 31.287 25.2332 30.5C25.2332 29.713 25.8772 29.0691 26.6642 29.0691H42.6905C43.4775 29.0691 44.1214 29.713 44.1214 30.5ZM44.1214 39.0855C44.1214 39.8725 43.4775 40.5164 42.6905 40.5164H26.6642C25.8772 40.5164 25.2332 39.8725 25.2332 39.0855C25.2332 38.2985 25.8772 37.6546 26.6642 37.6546H42.6905C43.4775 37.6546 44.1214 38.2985 44.1214 39.0855ZM21.799 30.5C21.799 31.287 21.1551 31.9309 20.3681 31.9309H17.6494C16.8624 31.9309 16.2184 31.287 16.2184 30.5C16.2184 29.713 16.8624 29.0691 17.6494 29.0691H20.3681C21.1551 29.0691 21.799 29.713 21.799 30.5ZM21.799 39.0855C21.799 39.8725 21.1551 40.5164 20.3681 40.5164H17.6494C16.8624 40.5164 16.2184 39.8725 16.2184 39.0855C16.2184 38.2985 16.8624 37.6546 17.6494 37.6546H20.3681C21.1551 37.6546 21.799 38.2985 21.799 39.0855ZM44.1214 21.9145C44.1214 22.7015 43.4775 23.3454 42.6905 23.3454H26.6642C25.8772 23.3454 25.2332 22.7015 25.2332 21.9145C25.2332 21.1275 25.8772 20.4836 26.6642 20.4836H42.6905C43.4775 20.4836 44.1214 21.1275 44.1214 21.9145ZM21.799 21.9145C21.799 22.7015 21.1551 23.3454 20.3681 23.3454H17.6494C16.8624 23.3454 16.2184 22.7015 16.2184 21.9145C16.2184 21.1275 16.8624 20.4836 17.6494 20.4836H20.3681C21.1551 20.4836 21.799 21.1275 21.799 21.9145Z" fill="url(#paint0_linear_8589_442)"/>
<defs>
<linearGradient id="paint0_linear_8589_442" x1="2.98242" y1="30.7635" x2="57.4032" y2="30.7635" gradientUnits="userSpaceOnUse">
<stop stop-color="#4C1FFE"/>
<stop offset="0.480455" stop-color="#3084F7"/>
<stop offset="1" stop-color="#15E3F0"/>
</linearGradient>
</defs>
</svg>
