<svg width="25" height="25" viewBox="0 0 25 25" fill="none" xmlns="http://www.w3.org/2000/svg">
<path d="M13.0266 3.72754V3.35254C13.0266 3.15363 13.1056 2.96286 13.2463 2.82221C13.3869 2.68156 13.5777 2.60254 13.7766 2.60254C13.9755 2.60254 14.1663 2.68156 14.3069 2.82221C14.4476 2.96286 14.5266 3.15363 14.5266 3.35254V3.72754" fill="#8B6946"/>
<path d="M15.6516 12.3525L16.7766 13.8525L19.9266 18.0525C21.4101 20.0303 19.9986 22.8525 17.5266 22.8525H9.27664C6.80464 22.8525 5.39314 20.0303 6.87664 18.0525L10.0266 13.8525L11.1516 12.3525L11.9016 8.60254L12.2766 6.35254L11.9016 4.85254L11.5266 3.72754V3.35254C11.5266 3.15363 11.6057 2.96286 11.7463 2.82221C11.887 2.68156 12.0777 2.60254 12.2766 2.60254C12.4755 2.60254 12.6663 2.68156 12.807 2.82221C12.9476 2.96286 13.0266 3.15363 13.0266 3.35254V3.72754H14.5266V3.35254C14.5266 3.15363 14.6057 2.96286 14.7463 2.82221C14.887 2.68156 15.0777 2.60254 15.2766 2.60254C15.4755 2.60254 15.6663 2.68156 15.807 2.82221C15.9476 2.96286 16.0266 3.15363 16.0266 3.35254V3.72754L15.6516 4.85254L15.2766 6.35254L15.6516 12.3525Z" fill="#8B6946"/>
<path d="M15.5204 10.254C15.3973 10.1595 15.2473 10.1067 15.0921 10.1033C15.2398 10.0996 15.3828 10.0512 15.5024 9.96454L15.4229 8.68879C15.3208 8.63491 15.2075 8.60588 15.0921 8.60404C15.2034 8.60249 15.3129 8.57583 15.4124 8.52604L15.2766 6.35404L15.4641 5.60404H13.7474C13.3811 5.60414 13.0246 5.48613 12.7307 5.26752C12.4369 5.04891 12.2213 4.74137 12.1161 4.39054L11.9196 3.73429V3.35929C11.9196 3.00904 12.1649 2.72779 12.4896 2.64529C12.4206 2.62429 12.3524 2.60254 12.2766 2.60254C12.0777 2.60254 11.887 2.68156 11.7463 2.82221C11.6057 2.96286 11.5266 3.15363 11.5266 3.35254V3.72754L11.9016 4.85254L12.0891 5.60254L12.2766 6.35254L11.9016 8.60254L11.1516 12.3525L10.0266 13.8525L6.87664 18.0525C5.39314 20.0303 6.80464 22.8525 9.27664 22.8525H9.57664C7.16314 22.782 5.80489 20.0115 7.26889 18.0593L10.4189 13.8593L11.5439 12.3593L11.6954 11.6025H15.0914C15.2856 11.6025 15.4589 11.5238 15.5916 11.403L15.5204 10.254Z" fill="#75563A"/>
<path d="M15.6516 12.3527L15.3231 7.10273H12.2766L12.2016 6.80273L11.9016 8.60273L11.8274 8.97473L11.1516 12.3527L10.0266 13.8527L6.87664 18.0527C5.39314 20.0305 6.80464 22.8527 9.27664 22.8527H10.7766C8.30464 22.8527 7.03414 20.1287 8.37664 18.0527C8.82214 17.3635 9.61864 15.922 10.2989 14.6612C10.5534 14.1896 10.9308 13.7957 11.3911 13.5213C11.8514 13.2469 12.3775 13.1023 12.9134 13.1027H15.6216C15.7914 13.0999 15.9549 13.0384 16.0844 12.9287L15.6516 12.3527Z" fill="#75563A"/>
<path d="M11.9819 14.2276C11.923 14.2278 11.8648 14.2141 11.8122 14.1875C11.7596 14.161 11.714 14.1223 11.6792 14.0748C11.6444 14.0272 11.6213 13.9721 11.6119 13.914C11.6024 13.8558 11.6069 13.7962 11.6249 13.7401L12.0809 12.2949V11.9776C12.0809 11.8783 12.1203 11.783 12.1904 11.7127C12.2606 11.6424 12.3558 11.6028 12.4551 11.6026L14.3481 11.5996C14.3974 11.5994 14.447 11.609 14.4926 11.6278C14.5382 11.6465 14.5796 11.6741 14.6145 11.709C14.6493 11.7439 14.677 11.7853 14.6957 11.8309C14.7145 11.8765 14.7241 11.9253 14.7239 11.9746V12.2949L15.1799 13.7401C15.1947 13.7871 15.2001 13.8365 15.1958 13.8856C15.1916 13.9347 15.1776 13.9824 15.1549 14.0261C15.1322 14.0698 15.101 14.1086 15.0633 14.1403C15.0256 14.172 14.982 14.1959 14.935 14.2107C14.888 14.2256 14.8386 14.231 14.7895 14.2267C14.7404 14.2224 14.6927 14.2085 14.649 14.1858C14.6053 14.163 14.5665 14.1319 14.5348 14.0942C14.5031 14.0564 14.4792 14.0128 14.4644 13.9659L13.9911 12.4659C13.9799 12.4294 13.974 12.3915 13.9739 12.3534V12.3511L12.8309 12.3534C12.8308 12.3915 12.825 12.4294 12.8136 12.4659L12.3396 13.9659C12.3153 14.0417 12.2675 14.1078 12.2033 14.1548C12.139 14.2018 12.0615 14.2273 11.9819 14.2276Z" fill="#75563A"/>
<path d="M13.4016 14.2275C13.3022 14.2275 13.2068 14.188 13.1364 14.1177C13.0661 14.0474 13.0266 13.952 13.0266 13.8525V12.3525C13.0266 12.2531 13.0661 12.1577 13.1364 12.0874C13.2068 12.017 13.3022 11.9775 13.4016 11.9775C13.5011 11.9775 13.5965 12.017 13.6668 12.0874C13.7371 12.1577 13.7766 12.2531 13.7766 12.3525V13.8525C13.7766 13.952 13.7371 14.0474 13.6668 14.1177C13.5965 14.188 13.5011 14.2275 13.4016 14.2275Z" fill="#75563A"/>
<path d="M16.3709 8.60254C16.3709 8.40363 16.2918 8.21286 16.1512 8.07221C16.0105 7.93156 15.8198 7.85254 15.6209 7.85254C15.8198 7.85254 16.0105 7.77352 16.1512 7.63287C16.2918 7.49222 16.3709 7.30145 16.3709 7.10254C16.3709 6.90363 16.2918 6.71286 16.1512 6.57221C16.0105 6.43156 15.8198 6.35254 15.6209 6.35254H12.2766L11.9016 4.85254H10.8959C10.7566 4.85244 10.62 4.89121 10.5016 4.96448C10.3831 5.03775 10.2875 5.14262 10.2254 5.26729L9.89011 5.93779C9.82787 6.06235 9.73218 6.16712 9.61376 6.24038C9.49533 6.31363 9.35886 6.35246 9.21961 6.35254H7.40161V11.6025H9.37186C9.57061 11.6025 9.76186 11.6813 9.90211 11.8223L10.2126 12.1328C10.3532 12.2735 10.544 12.3525 10.7429 12.3525H15.6209C15.8198 12.3525 16.0105 12.2735 16.1512 12.1329C16.2918 11.9922 16.3709 11.8015 16.3709 11.6025C16.3709 11.4036 16.2918 11.2129 16.1512 11.0722C16.0105 10.9316 15.8198 10.8525 15.6209 10.8525C15.8198 10.8525 16.0105 10.7735 16.1512 10.6329C16.2918 10.4922 16.3709 10.3015 16.3709 10.1025C16.3709 9.90363 16.2918 9.71286 16.1512 9.57221C16.0105 9.43156 15.8198 9.35254 15.6209 9.35254C15.8198 9.35254 16.0105 9.27352 16.1512 9.13287C16.2918 8.99222 16.3709 8.80145 16.3709 8.60254Z" fill="#F0CAAF"/>
<path d="M13.9731 2.64229C13.9094 2.62429 13.8464 2.60254 13.7766 2.60254C13.5777 2.60254 13.3869 2.68156 13.2463 2.82221C13.1056 2.96286 13.0266 3.15363 13.0266 3.35254V3.72754H13.4196V3.35254C13.4196 3.00829 13.6566 2.73004 13.9731 2.64229ZM15.4731 2.64229C15.4094 2.62429 15.3464 2.60254 15.2766 2.60254C15.0777 2.60254 14.8869 2.68156 14.7463 2.82221C14.6056 2.96286 14.5266 3.15363 14.5266 3.35254V3.72754H14.9196V3.35254C14.9196 3.00829 15.1566 2.73004 15.4731 2.64229ZM12.4731 2.64229C12.4094 2.62429 12.3464 2.60254 12.2766 2.60254C12.0777 2.60254 11.8869 2.68156 11.7463 2.82221C11.6056 2.96286 11.5266 3.15363 11.5266 3.35254V3.72754H11.9196V3.35254C11.9196 3.00829 12.1566 2.73004 12.4731 2.64229Z" fill="#75563A"/>
<path d="M14.9016 17.219H14.4899C14.4332 16.9419 14.3142 16.6813 14.1419 16.457H14.9016C15.0011 16.457 15.0965 16.4175 15.1668 16.3472C15.2371 16.2769 15.2766 16.1815 15.2766 16.082C15.2766 15.9826 15.2371 15.8872 15.1668 15.8169C15.0965 15.7465 15.0011 15.707 14.9016 15.707H11.9016C11.8022 15.707 11.7068 15.7465 11.6364 15.8169C11.5661 15.8872 11.5266 15.9826 11.5266 16.082C11.5266 16.1815 11.5661 16.2769 11.6364 16.3472C11.7068 16.4175 11.8022 16.457 11.9016 16.457H12.6516C13.1444 16.457 13.5591 16.7773 13.7114 17.219H11.9016C11.8022 17.219 11.7068 17.2585 11.6364 17.3289C11.5661 17.3992 11.5266 17.4946 11.5266 17.594C11.5266 17.6935 11.5661 17.7889 11.6364 17.8592C11.7068 17.9295 11.8022 17.969 11.9016 17.969H13.7039C13.6251 18.185 13.482 18.3715 13.2938 18.5035C13.1056 18.6355 12.8815 18.7065 12.6516 18.707H11.9016C11.8022 18.707 11.7068 18.7465 11.6364 18.8169C11.5661 18.8872 11.5266 18.9826 11.5266 19.082L11.5281 19.088C11.5269 19.1382 11.536 19.188 11.5547 19.2346C11.5733 19.2811 11.6013 19.3234 11.6369 19.3588L13.8869 21.6088C13.9216 21.6439 13.9629 21.6718 14.0085 21.6908C14.0541 21.7098 14.103 21.7196 14.1524 21.7196C14.2017 21.7196 14.2506 21.7098 14.2962 21.6908C14.3418 21.6718 14.3831 21.6439 14.4179 21.6088C14.4882 21.5385 14.5277 21.4431 14.5277 21.3437C14.5277 21.2442 14.4882 21.1489 14.4179 21.0785L12.7829 19.4435C13.1884 19.4159 13.574 19.257 13.8813 18.9909C14.1886 18.7247 14.4009 18.3658 14.4861 17.9683H14.9024C14.953 17.9705 15.0035 17.9624 15.0509 17.9446C15.0983 17.9267 15.1416 17.8995 15.1782 17.8644C15.2148 17.8294 15.2439 17.7873 15.2637 17.7407C15.2836 17.6941 15.2938 17.6439 15.2937 17.5933C15.2937 17.5426 15.2834 17.4925 15.2634 17.4459C15.2435 17.3994 15.2143 17.3573 15.1776 17.3224C15.141 17.2874 15.0976 17.2602 15.0502 17.2424C15.0028 17.2247 14.9522 17.2167 14.9016 17.219Z" fill="#EFF2FA"/>
<path d="M13.8606 10.8525H15.6208C15.8198 10.8525 16.0105 10.9316 16.1512 11.0722C16.2918 11.2129 16.3708 11.4036 16.3708 11.6025C16.3708 11.8015 16.2918 11.9922 16.1512 12.1329C16.0105 12.2735 15.8198 12.3525 15.6208 12.3525H13.8606M13.8606 9.35254H15.6208C15.8198 9.35254 16.0105 9.43156 16.1512 9.57221C16.2918 9.71286 16.3708 9.90363 16.3708 10.1025C16.3708 10.3015 16.2918 10.4922 16.1512 10.6329C16.0105 10.7735 15.8198 10.8525 15.6208 10.8525H13.8606M13.8606 7.85254H15.6208C15.8198 7.85254 16.0105 7.93156 16.1512 8.07221C16.2918 8.21286 16.3708 8.40363 16.3708 8.60254C16.3708 8.80145 16.2918 8.99222 16.1512 9.13287C16.0105 9.27352 15.8198 9.35254 15.6208 9.35254H13.8606" fill="#F0CAAF"/>
<path d="M12.2766 6.35254L11.9016 4.85254H11.1516L11.3849 5.78479C11.4255 5.94697 11.5191 6.09093 11.651 6.1938C11.7828 6.29666 11.9452 6.35253 12.1124 6.35254H12.2766ZM16.3281 8.39179C16.2924 8.55571 16.2021 8.70265 16.072 8.80853C15.9419 8.91441 15.7796 8.97294 15.6119 8.97454H14.3571V9.35254H15.6209C15.8198 9.35254 16.0105 9.27352 16.1512 9.13287C16.2918 8.99222 16.3709 8.80145 16.3709 8.60254C16.3709 8.52829 16.3491 8.46004 16.3281 8.39179ZM16.3281 9.89179C16.2924 10.0557 16.2021 10.2027 16.072 10.3085C15.9419 10.4144 15.7796 10.4729 15.6119 10.4745H14.3571V10.8525H15.6209C15.8198 10.8525 16.0105 10.7735 16.1512 10.6329C16.2918 10.4922 16.3709 10.3015 16.3709 10.1025C16.3709 10.0283 16.3491 9.96004 16.3281 9.89179ZM16.3281 11.3918C16.2924 11.5557 16.2021 11.7027 16.072 11.8085C15.9419 11.9144 15.7796 11.9729 15.6119 11.9745H13.8599V12.3525H15.6201C15.819 12.3525 16.0098 12.2735 16.1504 12.1329C16.2911 11.9922 16.3701 11.8015 16.3701 11.6025C16.3709 11.5283 16.3491 11.46 16.3281 11.3918ZM16.3281 6.89179C16.2928 7.05578 16.2027 7.20285 16.0727 7.30878C15.9426 7.41471 15.7803 7.47318 15.6126 7.47454L14.2484 7.47304V7.85104L15.6216 7.85254C15.8205 7.85254 16.0113 7.77352 16.1519 7.63287C16.2926 7.49222 16.3716 7.30145 16.3716 7.10254C16.3709 7.02829 16.3491 6.96004 16.3281 6.89179Z" fill="#E2B698"/>
<path d="M10.6844 11.9775C10.5859 11.9776 10.4883 11.9583 10.3973 11.9206C10.3063 11.8829 10.2237 11.8275 10.1541 11.7578L9.84361 11.4473C9.70299 11.3066 9.51226 11.2276 9.31336 11.2275H7.40161V11.6025H9.37186C9.57061 11.6025 9.76186 11.6813 9.90211 11.8223L10.2126 12.1328C10.3532 12.2735 10.544 12.3525 10.7429 12.3525H14.9324L14.8431 11.9775H10.6844Z" fill="#E2B698"/>
<path d="M2.93237 5.97754H7.77662C7.87608 5.97754 7.97146 6.01705 8.04179 6.08737C8.11211 6.1577 8.15162 6.25308 8.15162 6.35254V12.3525C8.15162 12.452 8.11211 12.5474 8.04179 12.6177C7.97146 12.688 7.87608 12.7275 7.77662 12.7275H2.93237" fill="#90CFF1"/>
<path d="M6.68237 10.5083V5.97754H2.93237V12.7275H7.77662C7.87608 12.7275 7.97146 12.688 8.04179 12.6177C8.11211 12.5474 8.15162 12.452 8.15162 12.3525V11.9775C7.76195 11.9775 7.38824 11.8227 7.11271 11.5472C6.83717 11.2717 6.68237 10.898 6.68237 10.5083Z" fill="#72B7E5"/>
<path d="M1.43237 5.60254H5.52662C5.62608 5.60254 5.72146 5.64205 5.79179 5.71237C5.86211 5.7827 5.90162 5.87808 5.90162 5.97754V12.7275C5.90162 12.7768 5.89192 12.8255 5.87308 12.871C5.85423 12.9165 5.82661 12.9579 5.79179 12.9927C5.75697 13.0275 5.71563 13.0551 5.67013 13.074C5.62463 13.0928 5.57587 13.1025 5.52662 13.1025H1.43237" fill="#4C6D86"/>
<path d="M5.52662 5.60254H4.40162V10.1025C4.40162 10.5004 4.24359 10.8819 3.96228 11.1632C3.68098 11.4445 3.29945 11.6025 2.90162 11.6025H1.43237V13.1025H5.52662C5.62608 13.1025 5.72146 13.063 5.79179 12.9927C5.86211 12.9224 5.90162 12.827 5.90162 12.7275V5.97754C5.90162 5.87808 5.86211 5.7827 5.79179 5.71237C5.72146 5.64205 5.62608 5.60254 5.52662 5.60254Z" fill="#41667D"/>
<path d="M7.02661 11.9775C7.23372 11.9775 7.40161 11.8096 7.40161 11.6025C7.40161 11.3954 7.23372 11.2275 7.02661 11.2275C6.8195 11.2275 6.65161 11.3954 6.65161 11.6025C6.65161 11.8096 6.8195 11.9775 7.02661 11.9775Z" fill="#EFF2FA"/>
<path d="M14.4478 7.84961H14.0481C13.9984 7.84961 13.9507 7.82986 13.9155 7.79469C13.8803 7.75953 13.8606 7.71184 13.8606 7.66211C13.8606 7.61238 13.8803 7.56469 13.9155 7.52953C13.9507 7.49436 13.9984 7.47461 14.0481 7.47461H14.4478C14.4976 7.47461 14.5453 7.49436 14.5804 7.52953C14.6156 7.56469 14.6353 7.61238 14.6353 7.66211C14.6353 7.71184 14.6156 7.75953 14.5804 7.79469C14.5453 7.82986 14.4976 7.84961 14.4478 7.84961ZM14.4478 9.34961H14.0481C13.9984 9.34961 13.9507 9.32986 13.9155 9.29469C13.8803 9.25953 13.8606 9.21184 13.8606 9.16211C13.8606 9.11238 13.8803 9.06469 13.9155 9.02953C13.9507 8.99436 13.9984 8.97461 14.0481 8.97461H14.4478C14.4976 8.97461 14.5453 8.99436 14.5804 9.02953C14.6156 9.06469 14.6353 9.11238 14.6353 9.16211C14.6353 9.21184 14.6156 9.25953 14.5804 9.29469C14.5453 9.32986 14.4976 9.34961 14.4478 9.34961ZM14.4478 10.8496H14.0481C13.9984 10.8496 13.9507 10.8299 13.9155 10.7947C13.8803 10.7595 13.8606 10.7118 13.8606 10.6621C13.8606 10.6124 13.8803 10.5647 13.9155 10.5295C13.9507 10.4944 13.9984 10.4746 14.0481 10.4746H14.4478C14.4976 10.4746 14.5453 10.4944 14.5804 10.5295C14.6156 10.5647 14.6353 10.6124 14.6353 10.6621C14.6353 10.7118 14.6156 10.7595 14.5804 10.7947C14.5453 10.8299 14.4976 10.8496 14.4478 10.8496Z" fill="#E2B698"/>
</svg>
