<svg width="25" height="25" viewBox="0 0 25 25" fill="none" xmlns="http://www.w3.org/2000/svg">
<path d="M12.9038 2.72754C10.7828 2.72992 8.74936 3.57354 7.24959 5.07332C5.74981 6.57309 4.90619 8.60654 4.90381 10.7275C4.90381 13.9825 7.26681 16.6855 9.76981 19.5465C10.5618 20.4525 11.3818 21.3895 12.1118 22.3375C12.2052 22.4587 12.3252 22.5569 12.4625 22.6244C12.5998 22.6919 12.7508 22.727 12.9038 22.727C13.0568 22.727 13.2078 22.6919 13.3451 22.6244C13.4824 22.5569 13.6024 22.4587 13.6958 22.3375C14.4258 21.3895 15.2458 20.4525 16.0378 19.5465C18.5408 16.6855 20.9038 13.9825 20.9038 10.7275C20.9014 8.60654 20.0578 6.57309 18.558 5.07332C17.0583 3.57354 15.0248 2.72992 12.9038 2.72754ZM12.9038 13.7275C12.3105 13.7275 11.7304 13.5516 11.2371 13.2219C10.7438 12.8923 10.3592 12.4238 10.1322 11.8756C9.90511 11.3274 9.8457 10.7242 9.96145 10.1423C10.0772 9.56033 10.3629 9.02578 10.7825 8.60622C11.202 8.18666 11.7366 7.90094 12.3185 7.78518C12.9005 7.66943 13.5037 7.72884 14.0519 7.9559C14.6 8.18296 15.0686 8.56748 15.3982 9.06083C15.7279 9.55418 15.9038 10.1342 15.9038 10.7275C15.9038 11.5232 15.5877 12.2863 15.0251 12.8489C14.4625 13.4115 13.6995 13.7275 12.9038 13.7275Z" fill="white"/>
</svg>
