<svg width="25" height="25" viewBox="0 0 25 25" fill="none" xmlns="http://www.w3.org/2000/svg">
<path d="M4.87894 21.5082C4.31804 21.5082 3.94411 21.3212 3.57018 20.9473C2.82231 20.1994 2.82231 19.0776 3.57018 18.3298L18.5275 3.37242C19.2754 2.62456 20.3972 2.62456 21.145 3.37242C21.8929 4.12029 21.8929 5.24209 21.145 5.98996L6.18771 20.9473C5.81378 21.3212 5.43984 21.5082 4.87894 21.5082Z" fill="#3D56FA"/>
<path d="M19.8363 21.5082C19.2754 21.5082 18.9014 21.3212 18.5275 20.9473L3.57018 5.98996C2.82231 5.24209 2.82231 4.12029 3.57018 3.37242C4.31804 2.62456 5.43984 2.62456 6.18771 3.37242L21.145 18.3298C21.8929 19.0776 21.8929 20.1994 21.145 20.9473C20.7711 21.3212 20.3972 21.5082 19.8363 21.5082Z" fill="#3D56FA"/>
</svg>
