<svg width="25" height="25" viewBox="0 0 25 25" fill="none" xmlns="http://www.w3.org/2000/svg">
<g clip-path="url(#clip0_8608_2104)">
<mask id="mask0_8608_2104" style="mask-type:luminance" maskUnits="userSpaceOnUse" x="0" y="0" width="25" height="25">
<path d="M0.107117 0.982422H24.1071V24.9824H0.107117V0.982422Z" fill="white"/>
</mask>
<g mask="url(#mask0_8608_2104)">
<path d="M20.9492 1.61374H7.0545C6.38448 1.61374 5.7419 1.87991 5.26812 2.35369C4.79435 2.82746 4.52818 3.47004 4.52818 4.14006V19.298H3.26502C2.595 19.298 1.95243 19.5641 1.47865 20.0379C1.00487 20.5117 0.738708 21.1542 0.738708 21.8243C0.738708 22.4943 1.00487 23.1369 1.47865 23.6106C1.95243 24.0844 2.595 24.3506 3.26502 24.3506H18.4229C19.0929 24.3506 19.7355 24.0844 20.2093 23.6106C20.6831 23.1369 20.9492 22.4943 20.9492 21.8243V6.66638C21.6193 6.66638 22.2618 6.40021 22.7356 5.92644C23.2094 5.45266 23.4755 4.81008 23.4755 4.14006C23.4755 3.47004 23.2094 2.82746 22.7356 2.35369C22.2618 1.87991 21.6193 1.61374 20.9492 1.61374Z" fill="#FFD983"/>
<path d="M5.79132 7.92969H20.9492V6.66653H7.05448L5.79132 6.03495V7.92969Z" fill="#E39F3D"/>
<path d="M7.0545 1.61374C6.38448 1.61374 5.7419 1.87991 5.26812 2.35369C4.79435 2.82746 4.52818 3.47004 4.52818 4.14006V19.6485C4.14585 19.4213 3.70978 19.3003 3.26503 19.298C2.76537 19.298 2.27693 19.4461 1.86148 19.7237C1.44603 20.0013 1.12222 20.3959 0.931014 20.8575C0.739803 21.3191 0.689774 21.8271 0.787252 22.3171C0.884731 22.8072 1.12534 23.2573 1.47865 23.6106C1.83196 23.964 2.28211 24.2046 2.77217 24.302C3.26222 24.3995 3.77018 24.3495 4.2318 24.1583C4.69343 23.9671 5.08798 23.6433 5.36558 23.2278C5.64318 22.8124 5.79134 22.3239 5.79134 21.8243V6.31585C6.17368 6.54306 6.60975 6.66407 7.0545 6.66637C7.72452 6.66637 8.3671 6.40021 8.84087 5.92643C9.31465 5.45266 9.58081 4.81008 9.58081 4.14006C9.58081 3.47004 9.31465 2.82746 8.84087 2.35369C8.3671 1.87991 7.72452 1.61374 7.0545 1.61374Z" fill="#FFE8B6"/>
<path d="M8.31764 4.14052C8.3176 4.30644 8.28488 4.47073 8.22134 4.62401C8.15781 4.77728 8.06471 4.91654 7.94736 5.03384C7.83 5.15113 7.69069 5.24417 7.53739 5.30762C7.38408 5.37108 7.21977 5.40372 7.05385 5.40368C6.88793 5.40364 6.72364 5.37092 6.57037 5.30738C6.41709 5.24385 6.27783 5.15075 6.16053 5.03339C6.04324 4.91604 5.95021 4.77673 5.88675 4.62342C5.82329 4.47012 5.79065 4.30581 5.79069 4.13989C5.79078 3.8048 5.92397 3.48346 6.16098 3.24657C6.39799 3.00968 6.71939 2.87665 7.05448 2.87673C7.38958 2.87682 7.71092 3.01001 7.9478 3.24702C8.18469 3.48402 8.31773 3.80543 8.31764 4.14052ZM4.52817 21.8247C4.52813 21.9907 4.4954 22.1549 4.43187 22.3082C4.36834 22.4615 4.27524 22.6008 4.15788 22.7181C4.04053 22.8353 3.90122 22.9284 3.74791 22.9918C3.59461 23.0553 3.4303 23.0879 3.26438 23.0879C3.09846 23.0878 2.93417 23.0551 2.78089 22.9916C2.62762 22.9281 2.48836 22.835 2.37106 22.7176C2.25377 22.6003 2.16073 22.4609 2.09728 22.3076C2.03382 22.1543 2.00118 21.99 2.00122 21.8241C2.0013 21.489 2.1345 21.1677 2.37151 20.9308C2.60851 20.6939 2.92992 20.5609 3.26501 20.5609C3.6001 20.561 3.92144 20.6942 4.15833 20.9312C4.39522 21.1682 4.52825 21.4896 4.52817 21.8247ZM19.6861 11.0879C19.6861 11.2554 19.6195 11.416 19.5011 11.5345C19.3826 11.6529 19.222 11.7195 19.0545 11.7195H7.68606C7.51856 11.7195 7.35791 11.6529 7.23947 11.5345C7.12103 11.416 7.05448 11.2554 7.05448 11.0879C7.05448 10.9204 7.12103 10.7597 7.23947 10.6413C7.35791 10.5229 7.51856 10.4563 7.68606 10.4563H19.0545C19.222 10.4563 19.3826 10.5229 19.5011 10.6413C19.6195 10.7597 19.6861 10.9204 19.6861 11.0879ZM19.6861 13.6142C19.6861 13.7817 19.6195 13.9424 19.5011 14.0608C19.3826 14.1792 19.222 14.2458 19.0545 14.2458H7.68606C7.51856 14.2458 7.35791 14.1792 7.23947 14.0608C7.12103 13.9424 7.05448 13.7817 7.05448 13.6142C7.05448 13.4467 7.12103 13.2861 7.23947 13.1676C7.35791 13.0492 7.51856 12.9826 7.68606 12.9826H19.0545C19.222 12.9826 19.3826 13.0492 19.5011 13.1676C19.6195 13.2861 19.6861 13.4467 19.6861 13.6142ZM19.6861 16.1405C19.6861 16.308 19.6195 16.4687 19.5011 16.5871C19.3826 16.7056 19.222 16.7721 19.0545 16.7721H7.68606C7.51856 16.7721 7.35791 16.7056 7.23947 16.5871C7.12103 16.4687 7.05448 16.308 7.05448 16.1405C7.05448 15.973 7.12103 15.8124 7.23947 15.6939C7.35791 15.5755 7.51856 15.5089 7.68606 15.5089H19.0545C19.222 15.5089 19.3826 15.5755 19.5011 15.6939C19.6195 15.8124 19.6861 15.973 19.6861 16.1405ZM19.6861 18.6668C19.6861 18.8343 19.6195 18.995 19.5011 19.1134C19.3826 19.2319 19.222 19.2984 19.0545 19.2984H7.68606C7.51856 19.2984 7.35791 19.2319 7.23947 19.1134C7.12103 18.995 7.05448 18.8343 7.05448 18.6668C7.05448 18.4993 7.12103 18.3387 7.23947 18.2202C7.35791 18.1018 7.51856 18.0353 7.68606 18.0353H19.0545C19.222 18.0353 19.3826 18.1018 19.5011 18.2202C19.6195 18.3387 19.6861 18.4993 19.6861 18.6668Z" fill="#C1694F"/>
</g>
</g>
<defs>
<clipPath id="clip0_8608_2104">
<rect width="24" height="24" fill="white" transform="translate(0.107117 0.982422)"/>
</clipPath>
</defs>
</svg>
