<svg width="54" height="53" viewBox="0 0 54 53" fill="none" xmlns="http://www.w3.org/2000/svg">
<path d="M27.1697 0.19751C20.1963 0.20545 13.5107 2.97915 8.57978 7.9101C3.64883 12.8411 0.875128 19.5266 0.867188 26.5C0.867187 33.5275 3.60469 40.1313 8.57344 45.0963C11.0093 47.547 13.9072 49.4901 17.0993 50.8129C20.2915 52.1357 23.7143 52.8119 27.1697 52.8025C34.1431 52.7946 40.8286 50.0209 45.7596 45.0899C50.6906 40.159 53.4642 33.4734 53.4722 26.5C53.4642 19.5266 50.6906 12.8411 45.7596 7.9101C40.8286 2.97915 34.1431 0.20545 27.1697 0.19751ZM27.1697 3.94751C33.1488 3.95446 38.8811 6.33275 43.109 10.5607C47.3369 14.7886 49.7152 20.5208 49.7222 26.5C49.7171 32.1705 47.5654 37.6289 43.6997 41.7775C41.1478 38.7566 37.8251 36.4836 34.0847 35.2C35.3832 34.1469 36.4306 32.8176 37.1507 31.3087C37.8708 29.7998 38.2453 28.1494 38.2472 26.4775C38.2428 24.9991 37.9467 23.536 37.3759 22.1722C36.8052 20.8084 35.9709 19.5706 34.921 18.5297C33.8711 17.4889 32.6261 16.6654 31.2574 16.1064C29.8886 15.5475 28.4231 15.2641 26.9447 15.2725C25.4669 15.2769 24.0045 15.5728 22.6411 16.1431C21.2778 16.7134 20.0404 17.5469 18.9996 18.5961C17.9588 19.6452 17.1352 20.8893 16.5758 22.2571C16.0164 23.625 15.7323 25.0897 15.7397 26.5675C15.7397 30.0513 17.3747 33.13 19.8797 35.185C16.2154 36.4339 12.9471 38.6309 10.4072 41.5525C6.6723 37.4297 4.60797 32.063 4.61719 26.5C4.62413 20.5208 7.00243 14.7886 11.2303 10.5607C15.4582 6.33275 21.1905 3.95446 27.1697 3.94751ZM27.0384 19.0225C31.1522 19.0225 34.4934 22.3675 34.4934 26.5675C34.4886 28.4993 33.7342 30.3538 32.389 31.7402C31.0438 33.1267 29.2129 33.9369 27.2822 34C27.1734 34 27.0684 33.9775 26.9597 33.9775C26.8659 33.9775 26.7759 33.9963 26.6822 34C24.7424 33.9241 22.9081 33.0968 21.5672 31.6929C20.2264 30.2891 19.484 28.4188 19.4972 26.4775C19.4972 22.3675 22.8384 19.0225 27.0384 19.0225ZM26.6784 37.7425C26.7684 37.7463 26.8584 37.7725 26.9484 37.7725H27.0384C27.1209 37.7725 27.1884 37.7463 27.2709 37.7425C29.887 37.7882 32.4623 38.399 34.8203 39.533C37.1783 40.667 39.2632 42.2974 40.9322 44.3125C37.0017 47.3832 32.1574 49.0516 27.1697 49.0525C22.0689 49.0628 17.1178 47.3295 13.1372 44.14C14.8105 42.1731 16.8836 40.5852 19.2184 39.4821C21.5533 38.379 24.0964 37.786 26.6784 37.7425Z" fill="url(#paint0_linear_8589_449)"/>
<defs>
<linearGradient id="paint0_linear_8589_449" x1="0.867188" y1="26.755" x2="53.5165" y2="26.755" gradientUnits="userSpaceOnUse">
<stop stop-color="#4C1FFE"/>
<stop offset="0.480455" stop-color="#3084F7"/>
<stop offset="1" stop-color="#15E3F0"/>
</linearGradient>
</defs>
</svg>
