<svg width="25" height="25" viewBox="0 0 25 25" fill="none" xmlns="http://www.w3.org/2000/svg">
<g clip-path="url(#clip0_8608_2167)">
<path d="M20.3571 24.0361H3.85712C3.44274 24.0361 3.10712 23.7005 3.10712 23.2861V4.91113C3.10712 4.49676 3.44274 4.16113 3.85712 4.16113H20.3571C20.7715 4.16113 21.1071 4.49676 21.1071 4.91113V23.2861C21.1071 23.7005 20.7715 24.0361 20.3571 24.0361Z" fill="#BE7E4E"/>
<path d="M3.10712 22.2812V23.2862C3.10712 23.7006 3.44274 24.0362 3.85712 24.0362H20.3571C20.7715 24.0362 21.1071 23.7006 21.1071 23.2862V11.0684C18.316 18.2729 10.7867 23.3541 3.10712 22.2812Z" fill="#AA6D43"/>
<path d="M19.6071 4.16113H4.60712V21.7861H19.6071V4.16113Z" fill="#EFECE8"/>
<path d="M19.6071 4.16113V21.7861H4.60712V20.2861H15.4821C16.9334 20.2861 18.1071 19.1124 18.1071 17.6611V4.16113H19.6071Z" fill="#E0E0E0"/>
<path d="M14.7321 14.2861H13.6071V20.2861H14.7321V14.2861Z" fill="#DC2F02"/>
<path d="M10.2321 18.0361H9.10712V20.2861H10.2321V18.0361Z" fill="#DC2F02"/>
<path d="M16.9821 12.0361H15.8571V20.2861H16.9821V12.0361Z" fill="#65BC6A"/>
<path d="M12.4821 13.9111H11.3571V20.2861H12.4821V13.9111Z" fill="#65BC6A"/>
<path d="M7.98212 16.9111H6.85712V20.2861H7.98212V16.9111Z" fill="#65BC6A"/>
<path d="M14.7321 18.377H13.6071V20.2861H14.7321V18.377Z" fill="#BC0404"/>
<path d="M10.2321 19.5703H9.10712V20.2862H10.2321V19.5703Z" fill="#BC0404"/>
<path d="M16.9821 17.6611H15.8571V20.2861H16.9821V17.6611Z" fill="#398F3E"/>
<path d="M12.4821 18.2578H11.3571V20.2862H12.4821V18.2578Z" fill="#398F3E"/>
<path d="M7.98212 19.2119H6.85712V20.2859H7.98212V19.2119Z" fill="#398F3E"/>
<path d="M19.6071 21.7861V22.9111H4.60712V22.1611V21.7861H19.6071Z" fill="#C4CACE"/>
<path d="M12.8571 2.66113C12.8571 2.24863 12.5196 1.91113 12.1071 1.91113C11.6946 1.91113 11.3571 2.24863 11.3571 2.66113C11.3571 3.07363 11.6946 3.41113 12.1071 3.41113C12.5196 3.41113 12.8571 3.07363 12.8571 2.66113ZM12.1071 0.786133C13.1421 0.786133 13.9821 1.62613 13.9821 2.66113H15.1071C15.9359 2.66113 16.6071 3.33238 16.6071 4.16113V6.03613C16.6071 6.24238 16.4384 6.41113 16.2321 6.41113H7.98212C7.77587 6.41113 7.60712 6.24238 7.60712 6.03613V4.16113C7.60712 3.33238 8.27837 2.66113 9.10712 2.66113H10.2321C10.2321 1.62613 11.0721 0.786133 12.1071 0.786133Z" fill="#FFC008"/>
<path d="M7.60712 6.0363C7.60712 6.24255 7.77587 6.4113 7.98212 6.4113H16.2321C16.4384 6.4113 16.6071 6.24255 16.6071 6.0363V4.1613C16.6071 3.91118 16.54 3.67905 16.432 3.47168C14.0286 5.24693 10.4927 5.03918 7.60712 5.22593V6.0363Z" fill="#FFA10B"/>
<path d="M18.6925 6.47555C18.5894 6.4058 18.4585 6.39193 18.343 6.43768L16.468 7.18768C16.2756 7.26455 16.1822 7.4828 16.2591 7.67518C16.3364 7.86793 16.5542 7.96168 16.7466 7.88443L17.5412 7.56643L15.8665 10.1978L15.0539 8.8433C14.9185 8.61755 14.5461 8.61755 14.4107 8.8433L12.4079 12.1816L11.2476 11.0209C11.164 10.9373 11.0451 10.8972 10.9289 10.9148C10.8119 10.9317 10.7099 11.0026 10.6532 11.1068L8.64323 14.7916L7.49761 13.6459C7.41511 13.5634 7.29923 13.5237 7.18261 13.5394C7.06673 13.5548 6.96473 13.6238 6.90698 13.7251L5.40698 16.3501C5.30423 16.5297 5.36686 16.7588 5.54648 16.8616C5.60461 16.8953 5.66873 16.9111 5.73173 16.9111C5.86186 16.9111 5.98861 16.8432 6.05761 16.722L7.31423 14.5234L8.46698 15.6762C8.55061 15.7594 8.66873 15.7988 8.78573 15.7823C8.90273 15.7654 9.00473 15.6946 9.06136 15.5903L11.0714 11.9056L12.217 13.0512C12.2987 13.1329 12.4142 13.1727 12.5279 13.1581C12.6426 13.1442 12.7442 13.0778 12.8035 12.9788L14.7321 9.76468L15.5357 11.1038C15.6025 11.2152 15.7225 11.2838 15.8522 11.2857C15.9902 11.2831 16.1039 11.2216 16.1736 11.1121L18.1071 8.07418V8.66105C18.1071 8.86843 18.2751 9.03605 18.4821 9.03605C18.6891 9.03605 18.8571 8.86843 18.8571 8.66105V6.78605C18.8571 6.66155 18.7952 6.5453 18.6925 6.47555Z" fill="#65BC6A"/>
<path d="M9.16527 3.42346C8.71489 3.24984 8.24127 4.06734 8.69239 4.24134C9.14239 4.41534 9.61602 3.59784 9.16527 3.42346Z" fill="#FBDE08"/>
</g>
<defs>
<clipPath id="clip0_8608_2167">
<rect width="24" height="24" fill="white" transform="translate(0.107117 0.411133)"/>
</clipPath>
</defs>
</svg>
