<svg width="27" height="26" viewBox="0 0 27 26" fill="none" xmlns="http://www.w3.org/2000/svg">
<g clip-path="url(#clip0_8608_505)">
<path d="M20.6699 17.257C19.7833 17.257 18.9899 17.6034 18.3833 18.1461L10.0649 13.3544C10.1233 13.0889 10.1699 12.8233 10.1699 12.5462C10.1699 12.2691 10.1233 12.0035 10.0649 11.738L18.2899 6.99247C18.9199 7.56978 19.7483 7.92771 20.6699 7.92771C22.6066 7.92771 24.1699 6.38052 24.1699 4.46386C24.1699 2.54719 22.6066 1 20.6699 1C18.7333 1 17.1699 2.54719 17.1699 4.46386C17.1699 4.74096 17.2166 5.00653 17.2749 5.27209L9.04992 10.0176C8.41992 9.44026 7.59159 9.08233 6.66992 9.08233C4.73326 9.08233 3.16992 10.6295 3.16992 12.5462C3.16992 14.4629 4.73326 16.01 6.66992 16.01C7.59159 16.01 8.41992 15.6521 9.04992 15.0748L17.3566 19.878C17.2983 20.1205 17.2633 20.3745 17.2633 20.6285C17.2633 22.4875 18.7916 24 20.6699 24C22.5483 24 24.0766 22.4875 24.0766 20.6285C24.0766 18.7696 22.5483 17.257 20.6699 17.257Z" fill="#3D56FA"/>
</g>
<defs>
<clipPath id="clip0_8608_505">
<rect width="25.67" height="25.67" fill="white" transform="translate(0.706543 0.115234)"/>
</clipPath>
</defs>
</svg>
