<svg width="61" height="61" viewBox="0 0 61 61" fill="none" xmlns="http://www.w3.org/2000/svg">
<path d="M38.5152 18.3639C38.5152 18.8209 38.4835 19.278 38.4255 19.7298C38.4519 19.548 38.4783 19.3611 38.4994 19.1793C38.3727 20.0829 38.1299 20.9606 37.7762 21.8019C37.8448 21.6357 37.9187 21.4695 37.9874 21.3034C37.6337 22.1239 37.1797 22.8925 36.6255 23.5988L36.958 23.1781C36.4091 23.8741 35.7704 24.5024 35.0631 25.0426L35.4906 24.7154C34.7727 25.2555 33.9915 25.7073 33.1575 26.0553C33.3264 25.9877 33.4953 25.915 33.6642 25.8475C32.8091 26.1955 31.9171 26.4344 30.9986 26.559C31.1833 26.533 31.3734 26.5071 31.5581 26.4863C30.6344 26.6057 29.7053 26.6057 28.7816 26.4863C28.9664 26.5123 29.1564 26.5382 29.3411 26.559C28.4227 26.4344 27.5306 26.1955 26.6755 25.8475C26.8444 25.915 27.0133 25.9877 27.1822 26.0553C26.3482 25.7073 25.567 25.2607 24.8491 24.7154L25.2767 25.0426C24.5693 24.5024 23.9306 23.8741 23.3817 23.1781L23.7142 23.5988C23.1652 22.8925 22.706 22.1239 22.3524 21.3034C22.421 21.4695 22.4949 21.6357 22.5635 21.8019C22.2098 20.9606 21.967 20.0829 21.8403 19.1793C21.8667 19.3611 21.8931 19.548 21.9142 19.7298C21.7928 18.8209 21.7928 17.9069 21.9142 16.9981C21.8878 17.1799 21.8615 17.3668 21.8403 17.5486C21.967 16.6449 22.2098 15.7673 22.5635 14.9259C22.4949 15.0921 22.421 15.2583 22.3524 15.4245C22.706 14.604 23.16 13.8353 23.7142 13.1291L23.3817 13.5497C23.9306 12.8538 24.5693 12.2254 25.2767 11.6853L24.8491 12.0125C25.567 11.4724 26.3482 11.0206 27.1822 10.6726C27.0133 10.7401 26.8444 10.8128 26.6755 10.8803C27.5306 10.5324 28.4227 10.2935 29.3411 10.1689C29.1564 10.1948 28.9664 10.2208 28.7816 10.2416C29.7053 10.1221 30.6344 10.1221 31.5581 10.2416C31.3734 10.2156 31.1833 10.1896 30.9986 10.1689C31.9171 10.2935 32.8091 10.5324 33.6642 10.8803C33.4953 10.8128 33.3264 10.7401 33.1575 10.6726C33.9915 11.0206 34.7727 11.4672 35.4906 12.0125L35.0631 11.6853C35.7704 12.2254 36.4091 12.8538 36.958 13.5497L36.6255 13.1291C37.1745 13.8353 37.6337 14.604 37.9874 15.4245C37.9187 15.2583 37.8448 15.0921 37.7762 14.9259C38.1299 15.7673 38.3727 16.6449 38.4994 17.5486C38.473 17.3668 38.4466 17.1799 38.4255 16.9981C38.4835 17.4499 38.5099 17.9069 38.5152 18.3639C38.5205 19.4493 39.4812 20.4932 40.6266 20.4413C41.7668 20.3893 42.7433 19.5272 42.738 18.3639C42.7275 15.8763 41.9674 13.3316 40.4788 11.3062C40.0777 10.7609 39.6501 10.226 39.175 9.743C38.6947 9.25483 38.1668 8.83417 37.6179 8.4239C36.6202 7.67606 35.5065 7.12556 34.3241 6.69971C29.5575 4.98072 23.8092 6.51275 20.584 10.3766C20.1407 10.9063 19.7184 11.4568 19.3594 12.0488C19.0005 12.6357 18.7207 13.2589 18.4621 13.8925C17.9765 15.0662 17.7284 16.3126 17.6281 17.5745C17.4328 20.0466 18.0873 22.6277 19.3964 24.7465C20.6579 26.7927 22.5635 28.5481 24.791 29.54C25.4456 29.8308 26.1159 30.1009 26.8127 30.293C27.5042 30.48 28.2062 30.5838 28.9188 30.6669C30.2174 30.8175 31.5423 30.7137 32.825 30.4592C37.697 29.4829 41.7773 25.3542 42.5322 20.5088C42.643 19.8025 42.7275 19.0962 42.7275 18.3795C42.7328 17.2941 41.7509 16.2502 40.6161 16.3022C39.4759 16.3385 38.5152 17.2006 38.5152 18.3639ZM45.5198 50.8378H18.4357C17.2375 50.8378 16.0392 50.8482 14.841 50.8378C14.709 50.8378 14.5771 50.8274 14.4504 50.8119C14.6351 50.8378 14.8252 50.8638 15.0099 50.8846C14.7988 50.8534 14.5982 50.7963 14.4029 50.7184C14.5718 50.7859 14.7407 50.8586 14.9096 50.9261C14.6985 50.8378 14.5032 50.7236 14.3184 50.5834L14.746 50.9105C14.5876 50.7807 14.4398 50.6405 14.3132 50.4847L14.6457 50.9053C14.5032 50.7236 14.3923 50.5314 14.2973 50.3237C14.3659 50.4899 14.4398 50.6561 14.5085 50.8223C14.4293 50.6301 14.3765 50.4276 14.3395 50.225C14.3659 50.4068 14.3923 50.5937 14.4134 50.7755C14.329 50.1471 14.3871 49.4824 14.3871 48.8488V46.626C14.3871 46.0704 14.4187 45.5199 14.4926 44.9694C14.4662 45.1511 14.4398 45.3381 14.4187 45.5199C14.5665 44.4552 14.8516 43.4114 15.2791 42.4194C15.2105 42.5856 15.1366 42.7518 15.068 42.918C15.4797 41.9728 16.0076 41.0848 16.6463 40.2694L16.3137 40.6901C16.9524 39.8851 17.6861 39.158 18.5096 38.5296L18.082 38.8568C18.9108 38.2284 19.8134 37.7091 20.7741 37.304C20.6052 37.3715 20.4362 37.4442 20.2673 37.5117C21.2755 37.0963 22.3312 36.8106 23.4186 36.6652C23.2339 36.6912 23.0438 36.7172 22.8591 36.7379C23.6403 36.6393 24.4163 36.6341 25.2028 36.6341H34.8625C35.7334 36.6341 36.5991 36.6289 37.4701 36.7379C37.2853 36.712 37.0953 36.686 36.9105 36.6652C37.9926 36.8106 39.0536 37.0911 40.0618 37.5117C39.8929 37.4442 39.724 37.3715 39.5551 37.304C40.5158 37.7091 41.4184 38.2284 42.2471 38.8568L41.8196 38.5296C42.6377 39.158 43.3767 39.8799 44.0154 40.6901L43.6829 40.2694C44.3216 41.0848 44.8494 41.9728 45.2612 42.918C45.1926 42.7518 45.1187 42.5856 45.05 42.4194C45.4723 43.4114 45.7626 44.45 45.9104 45.5199C45.884 45.3381 45.8576 45.1511 45.8365 44.9694C45.9368 45.7536 45.9421 46.5326 45.9421 47.3219V49.8926C45.9421 50.1887 45.9527 50.4847 45.9157 50.7755C45.9421 50.5937 45.9685 50.4068 45.9896 50.225C45.9579 50.4328 45.8999 50.6301 45.8207 50.8223C45.8893 50.6561 45.9632 50.4899 46.0318 50.3237C45.9421 50.5314 45.826 50.7236 45.6835 50.9053L46.016 50.4847C45.884 50.6405 45.7415 50.7859 45.5832 50.9105L46.0107 50.5834C45.826 50.7236 45.6307 50.8326 45.4195 50.9261C45.5884 50.8586 45.7574 50.7859 45.9263 50.7184C45.731 50.7963 45.5251 50.8482 45.3192 50.8846C45.504 50.8586 45.694 50.8326 45.8788 50.8119C45.7626 50.8274 45.6412 50.8326 45.5198 50.8378C44.9761 50.843 44.4166 51.0663 44.026 51.4455C43.6618 51.8038 43.382 52.3958 43.4084 52.9152C43.4612 54.0265 44.3374 55.0081 45.5198 54.9925C47.5732 54.9613 49.3784 53.6422 49.9802 51.7051C50.2177 50.9365 50.1649 50.1108 50.1649 49.3214C50.1649 47.5141 50.223 45.7224 49.9063 43.9307C49.4418 41.3081 48.101 38.8412 46.2641 36.9041C44.4272 34.967 41.9568 33.544 39.3439 32.9105C37.8448 32.5469 36.3352 32.4898 34.8044 32.4898H25.4403C23.8726 32.4898 22.3154 32.5625 20.7899 32.9624C18.1982 33.6375 15.7595 35.0761 13.9595 37.0288C12.1437 38.997 10.8293 41.4691 10.4018 44.1073C10.1167 45.8782 10.1748 47.6543 10.1748 49.4408C10.1748 50.2614 10.1273 51.1183 10.4282 51.9025C10.8188 52.91 11.4416 53.7046 12.3548 54.3018C13.0674 54.764 13.9701 54.9873 14.8146 54.9977C15.2263 55.0029 15.6381 54.9977 16.0498 54.9977H45.5251C46.6283 54.9977 47.6893 54.0421 47.6365 52.9204C47.5837 51.7882 46.7075 50.8378 45.5198 50.8378Z" fill="url(#paint0_linear_8589_461)"/>
<defs>
<linearGradient id="paint0_linear_8589_461" x1="10.1699" y1="30.7375" x2="50.2036" y2="30.7375" gradientUnits="userSpaceOnUse">
<stop stop-color="#4C1FFE"/>
<stop offset="0.480455" stop-color="#3084F7"/>
<stop offset="1" stop-color="#15E3F0"/>
</linearGradient>
</defs>
</svg>
