<svg width="51" height="50" viewBox="0 0 51 50" fill="none" xmlns="http://www.w3.org/2000/svg">
<path d="M49.4907 30.8417C48.8242 29.6767 47.7444 28.8467 46.4529 28.5017C45.1615 28.1567 43.8151 28.3417 42.7386 28.97L33.9653 33.455C33.0454 32.37 31.6924 31.6667 30.1643 31.6667H16.8335C14.4722 31.6667 12.0344 32.9517 10.3997 35H8.5017C8.5017 34.08 7.75517 33.3333 6.83534 33.3333H1.83628C0.916449 33.3333 0.169922 34.08 0.169922 35V48.3333C0.169922 49.2533 0.916449 50 1.83628 50H6.83534C7.75517 50 8.5017 49.2533 8.5017 48.3333H26.8316C28.0664 48.3333 29.7761 47.82 30.7042 47.2L47.6444 37.6733L47.811 37.5667C50.1522 35.8567 50.8271 33.1533 49.4907 30.8417ZM5.16899 46.6667H3.50263V36.6667H5.16899V46.6667ZM45.918 34.8217L28.9695 44.3567C28.478 44.6817 27.4198 45 26.8316 45H8.5017V38.3333H11.2512C11.8177 38.3333 12.346 38.045 12.6526 37.5683C13.6407 36.0317 15.3204 35 16.8335 35H30.1643C31.0841 35 31.8307 35.7483 31.8307 36.6667C31.8307 37.585 31.0841 38.3333 30.1643 38.3333H20.1662C19.2464 38.3333 18.4998 39.08 18.4998 40C18.4998 40.92 19.2464 41.6667 20.1662 41.6667H30.1643C32.9205 41.6667 35.1634 39.4233 35.1634 36.6667C35.1634 36.64 35.1551 36.615 35.1551 36.59L44.335 31.895C44.7199 31.67 45.1698 31.61 45.5914 31.7217C46.0197 31.8367 46.378 32.1117 46.6029 32.5067C47.1928 33.525 46.5746 34.3183 45.918 34.8217ZM5.16899 26.6667H45.1615C46.083 26.6667 46.8279 25.92 46.8279 25V1.66667C46.8279 0.746667 46.083 0 45.1615 0H5.16899C4.24916 0 3.50263 0.746667 3.50263 1.66667V25C3.50263 25.92 4.24916 26.6667 5.16899 26.6667ZM13.3325 3.33333H36.9997C37.6629 6.59333 40.2358 9.16667 43.4952 9.83167V16.835C40.2358 17.5 37.6629 20.0733 36.9997 23.3333H13.3325C12.6676 20.0733 10.0947 17.5 6.83534 16.835V9.83167C10.0947 9.16667 12.6676 6.59333 13.3325 3.33333ZM6.83534 20.3067C8.24675 20.81 9.3582 21.9217 9.86144 23.3333H6.83534V20.3067ZM40.4707 23.3333C40.974 21.9217 42.0838 20.81 43.4952 20.3067V23.3333H40.4707ZM43.4952 6.35833C42.0821 5.85667 40.9723 4.745 40.4707 3.33333H43.4952V6.35833ZM9.86144 3.33333C9.3582 4.745 8.24675 5.85667 6.83534 6.36V3.33333H9.86144Z" fill="url(#paint0_linear_8589_455)"/>
<defs>
<linearGradient id="paint0_linear_8589_455" x1="0.169922" y1="25.2423" x2="50.2121" y2="25.2423" gradientUnits="userSpaceOnUse">
<stop stop-color="#4C1FFE"/>
<stop offset="0.480455" stop-color="#3084F7"/>
<stop offset="1" stop-color="#15E3F0"/>
</linearGradient>
</defs>
</svg>
