<svg width="25" height="25" viewBox="0 0 25 25" fill="none" xmlns="http://www.w3.org/2000/svg">
<g clip-path="url(#clip0_8608_2076)">
<path d="M12.1071 24.0176C18.3203 24.0176 23.3571 18.9808 23.3571 12.7676C23.3571 6.55437 18.3203 1.51758 12.1071 1.51758C5.89391 1.51758 0.857117 6.55437 0.857117 12.7676C0.857117 18.9808 5.89391 24.0176 12.1071 24.0176Z" fill="#2296BD"/>
<path d="M23.3571 12.7676C23.3618 14.816 22.8012 16.826 21.7371 18.5763C21.4951 18.5972 21.2517 18.5972 21.0096 18.5763C20.9231 18.5598 20.834 18.5624 20.7485 18.5837C20.663 18.6051 20.5832 18.6448 20.5146 18.7001C20.0121 19.2176 19.2059 19.4801 18.6171 19.0526C17.6646 18.3701 17.6196 17.2526 18.0959 16.0901C18.2496 15.8598 18.3365 15.5915 18.3471 15.3148C18.3577 15.0381 18.2915 14.764 18.1559 14.5226C18.0293 14.1267 17.8064 13.7685 17.5071 13.4801C17.3536 13.3394 17.1529 13.2613 16.9446 13.2613C16.7364 13.2613 16.5357 13.3394 16.3821 13.4801C16.2246 13.6526 16.1834 13.9038 16.0071 14.0501C15.7109 14.2826 15.2571 14.0501 15.0209 13.7726C14.1284 12.7751 14.2709 11.1138 15.1071 10.0713C15.9434 9.02884 17.3571 8.53759 18.6846 8.50384C19.7759 8.53759 21.4709 8.60884 22.1234 7.64884C22.9381 9.23185 23.3612 10.9872 23.3571 12.7676ZM12.4821 1.51759C12.4634 1.73134 12.4371 1.95634 12.4034 2.17009C12.3408 2.61427 12.181 3.03917 11.9353 3.41448C11.6896 3.78979 11.3642 4.10627 10.9821 4.34134C10.6259 4.48384 10.8021 4.84009 11.0159 5.09134C11.2071 5.34913 11.3289 5.6517 11.3697 5.97007C11.4105 6.28844 11.3689 6.61195 11.2488 6.90963C11.1288 7.2073 10.9343 7.46918 10.6841 7.67018C10.4339 7.87117 10.1362 8.00457 9.81964 8.05759C9.30589 8.05759 9.15589 8.40259 9.27214 8.87884C9.49608 10.1615 9.4047 11.4794 9.00589 12.7188C8.9688 12.8745 8.87177 13.0093 8.73589 13.0938C8.57089 13.1801 8.36089 13.0938 8.18839 13.1126C7.71214 13.1126 7.41964 13.7088 7.49464 14.1851C7.83214 16.0076 10.4946 15.9288 11.2446 17.4551C11.6871 18.5801 11.3271 20.0801 10.7346 21.1113C9.48589 22.6826 8.04589 21.4638 7.93339 19.7688C7.83214 18.9101 7.76839 17.9313 7.10089 17.3763C6.77417 17.1679 6.43335 16.9825 6.08089 16.8213C5.64575 16.5543 5.30578 16.157 5.10922 15.6858C4.91266 15.2146 4.86951 14.6934 4.98589 14.1963C5.10214 13.7726 5.33464 13.3563 5.28214 12.9251C5.22214 12.2576 4.58089 11.8413 4.03339 11.4513C3.0512 10.7276 2.21517 9.82412 1.56964 8.78884C2.37861 6.6493 3.82054 4.80718 5.70319 3.50808C7.58585 2.20898 9.81977 1.51463 12.1071 1.51759C12.2271 1.51759 12.3471 1.51759 12.4821 1.51759ZM19.4834 4.27384C19.3931 4.47692 19.2891 4.67363 19.1721 4.86259C18.4446 5.85259 17.9909 7.46134 16.5471 7.52509C15.4859 7.59634 13.9859 6.87634 14.0159 5.67634C14.2068 5.24285 14.3222 4.77994 14.3571 4.30759C14.362 4.14945 14.4104 3.99573 14.4971 3.86339C14.5838 3.73104 14.7054 3.62522 14.8484 3.55759C15.3721 3.2472 15.7703 2.76278 15.9734 2.18884C17.2623 2.66077 18.4524 3.36773 19.4834 4.27384Z" fill="#B2E25A"/>
<path opacity="0.08" d="M23.3571 12.7673C23.3561 15.105 22.627 17.3843 21.271 19.2885C19.915 21.1927 17.9995 22.6272 15.7906 23.3926C13.5818 24.158 11.1894 24.2163 8.94593 23.5595C6.70243 22.9026 4.71929 21.5632 3.27209 19.7273C5.47265 21.3081 8.16982 22.0416 10.8679 21.793C13.566 21.5445 16.0837 20.3304 17.9584 18.3741C19.833 16.4178 20.9387 13.8507 21.0721 11.1445C21.2055 8.43823 20.3577 5.77477 18.6846 3.64355C20.1322 4.6838 21.3111 6.054 22.1237 7.64064C22.9362 9.22729 23.359 10.9847 23.3571 12.7673Z" fill="black"/>
</g>
<defs>
<clipPath id="clip0_8608_2076">
<rect width="24" height="24" fill="white" transform="translate(0.107117 0.767578)"/>
</clipPath>
</defs>
</svg>
